%TF.GenerationSoftware,KiCad,Pcbnew,8.0.5*%
%TF.CreationDate,2024-10-28T21:30:14-07:00*%
%TF.ProjectId,PRISM Macro Pad,50524953-4d20-44d6-9163-726f20506164,rev?*%
%TF.SameCoordinates,Original*%
%TF.FileFunction,Copper,L2,Bot*%
%TF.FilePolarity,Positive*%
%FSLAX46Y46*%
G04 Gerber Fmt 4.6, Leading zero omitted, Abs format (unit mm)*
G04 Created by KiCad (PCBNEW 8.0.5) date 2024-10-28 21:30:14*
%MOMM*%
%LPD*%
G01*
G04 APERTURE LIST*
G04 Aperture macros list*
%AMRoundRect*
0 Rectangle with rounded corners*
0 $1 Rounding radius*
0 $2 $3 $4 $5 $6 $7 $8 $9 X,Y pos of 4 corners*
0 Add a 4 corners polygon primitive as box body*
4,1,4,$2,$3,$4,$5,$6,$7,$8,$9,$2,$3,0*
0 Add four circle primitives for the rounded corners*
1,1,$1+$1,$2,$3*
1,1,$1+$1,$4,$5*
1,1,$1+$1,$6,$7*
1,1,$1+$1,$8,$9*
0 Add four rect primitives between the rounded corners*
20,1,$1+$1,$2,$3,$4,$5,0*
20,1,$1+$1,$4,$5,$6,$7,0*
20,1,$1+$1,$6,$7,$8,$9,0*
20,1,$1+$1,$8,$9,$2,$3,0*%
G04 Aperture macros list end*
%TA.AperFunction,SMDPad,CuDef*%
%ADD10RoundRect,0.152400X0.609600X-1.063600X0.609600X1.063600X-0.609600X1.063600X-0.609600X-1.063600X0*%
%TD*%
%TA.AperFunction,ComponentPad*%
%ADD11C,1.524000*%
%TD*%
%TA.AperFunction,SMDPad,CuDef*%
%ADD12RoundRect,0.152400X-0.609600X1.063600X-0.609600X-1.063600X0.609600X-1.063600X0.609600X1.063600X0*%
%TD*%
%TA.AperFunction,ComponentPad*%
%ADD13C,2.500000*%
%TD*%
G04 APERTURE END LIST*
D10*
%TO.P,U1,1,PA02_A0_D0*%
%TO.N,unconnected-(U1-PA02_A0_D0-Pad1)*%
X108000000Y-73925000D03*
D11*
X108000000Y-74760000D03*
D10*
%TO.P,U1,2,PA4_A1_D1*%
%TO.N,unconnected-(U1-PA4_A1_D1-Pad2)*%
X110540000Y-73925000D03*
D11*
X110540000Y-74760000D03*
D10*
%TO.P,U1,3,PA10_A2_D2*%
%TO.N,Net-(U1-PA10_A2_D2)*%
X113080000Y-73925000D03*
D11*
X113080000Y-74760000D03*
D10*
%TO.P,U1,4,PA11_A3_D3*%
%TO.N,Net-(U1-PA11_A3_D3)*%
X115620000Y-73925000D03*
D11*
X115620000Y-74760000D03*
D10*
%TO.P,U1,5,PA8_A4_D4_SDA*%
%TO.N,Net-(U1-PA8_A4_D4_SDA)*%
X118160000Y-73925000D03*
D11*
X118160000Y-74760000D03*
D10*
%TO.P,U1,6,PA9_A5_D5_SCL*%
%TO.N,Net-(U1-PA9_A5_D5_SCL)*%
X120700000Y-73925000D03*
D11*
X120700000Y-74760000D03*
D10*
%TO.P,U1,7,PB08_A6_D6_TX*%
%TO.N,Net-(U1-PB08_A6_D6_TX)*%
X123240000Y-73925000D03*
D11*
X123240000Y-74760000D03*
%TO.P,U1,8,PB09_A7_D7_RX*%
%TO.N,unconnected-(U1-PB09_A7_D7_RX-Pad8)*%
X123240000Y-90000000D03*
D12*
X123240000Y-90835000D03*
D11*
%TO.P,U1,9,PA7_A8_D8_SCK*%
%TO.N,unconnected-(U1-PA7_A8_D8_SCK-Pad9)*%
X120700000Y-90000000D03*
D12*
X120700000Y-90835000D03*
D11*
%TO.P,U1,10,PA5_A9_D9_MISO*%
%TO.N,unconnected-(U1-PA5_A9_D9_MISO-Pad10)*%
X118160000Y-90000000D03*
D12*
X118160000Y-90835000D03*
D11*
%TO.P,U1,11,PA6_A10_D10_MOSI*%
%TO.N,unconnected-(U1-PA6_A10_D10_MOSI-Pad11)*%
X115620000Y-90000000D03*
D12*
X115620000Y-90835000D03*
D11*
%TO.P,U1,12,3V3*%
%TO.N,Net-(U1-3V3)*%
X113080000Y-90000000D03*
D12*
X113080000Y-90835000D03*
D11*
%TO.P,U1,13,GND*%
%TO.N,unconnected-(U1-GND-Pad13)*%
X110540000Y-90000000D03*
D12*
X110540000Y-90835000D03*
D11*
%TO.P,U1,14,5V*%
%TO.N,unconnected-(U1-5V-Pad14)*%
X108000000Y-90000000D03*
D12*
X108000000Y-90835000D03*
%TD*%
D13*
%TO.P,A,2*%
%TO.N,Net-(U1-PB08_A6_D6_TX)*%
X119460000Y-77420000D03*
%TO.P,A,1*%
%TO.N,Net-(U1-3V3)*%
X113110000Y-79960000D03*
%TD*%
%TO.P,I,1*%
%TO.N,Net-(U1-3V3)*%
X132150000Y-79960000D03*
%TO.P,I,2*%
%TO.N,Net-(U1-PA9_A5_D5_SCL)*%
X138500000Y-77420000D03*
%TD*%
%TO.P,H,2*%
%TO.N,Net-(U1-PA8_A4_D4_SDA)*%
X157540000Y-77420000D03*
%TO.P,H,1*%
%TO.N,Net-(U1-3V3)*%
X151190000Y-79960000D03*
%TD*%
%TO.P,D,1*%
%TO.N,Net-(U1-3V3)*%
X170230000Y-79960000D03*
%TO.P,D,2*%
%TO.N,Net-(U1-PA11_A3_D3)*%
X176580000Y-77420000D03*
%TD*%
%TO.P,L,2*%
%TO.N,Net-(U1-PA10_A2_D2)*%
X195620000Y-77420000D03*
%TO.P,L,1*%
%TO.N,Net-(U1-3V3)*%
X189270000Y-79960000D03*
%TD*%
%TA.AperFunction,Conductor*%
%TO.N,Net-(U1-3V3)*%
G36*
X204443039Y-70519685D02*
G01*
X204488794Y-70572489D01*
X204500000Y-70624000D01*
X204500000Y-93376000D01*
X204480315Y-93443039D01*
X204427511Y-93488794D01*
X204376000Y-93500000D01*
X106124000Y-93500000D01*
X106056961Y-93480315D01*
X106011206Y-93427511D01*
X106000000Y-93376000D01*
X106000000Y-89999997D01*
X106732677Y-89999997D01*
X106732677Y-90000000D01*
X106737028Y-90049732D01*
X106737500Y-90060540D01*
X106737500Y-91964541D01*
X106740412Y-92001546D01*
X106740413Y-92001552D01*
X106786434Y-92159954D01*
X106786435Y-92159957D01*
X106870405Y-92301943D01*
X106870412Y-92301952D01*
X106987047Y-92418587D01*
X106987051Y-92418590D01*
X106987053Y-92418592D01*
X107129041Y-92502564D01*
X107170816Y-92514701D01*
X107287447Y-92548586D01*
X107287450Y-92548586D01*
X107287452Y-92548587D01*
X107324466Y-92551500D01*
X107324474Y-92551500D01*
X108675526Y-92551500D01*
X108675534Y-92551500D01*
X108712548Y-92548587D01*
X108712550Y-92548586D01*
X108712552Y-92548586D01*
X108754323Y-92536449D01*
X108870959Y-92502564D01*
X109012947Y-92418592D01*
X109129592Y-92301947D01*
X109163268Y-92245003D01*
X109214337Y-92197321D01*
X109283079Y-92184817D01*
X109347668Y-92211462D01*
X109376732Y-92245004D01*
X109410405Y-92301943D01*
X109410407Y-92301946D01*
X109410412Y-92301952D01*
X109527047Y-92418587D01*
X109527051Y-92418590D01*
X109527053Y-92418592D01*
X109669041Y-92502564D01*
X109710816Y-92514701D01*
X109827447Y-92548586D01*
X109827450Y-92548586D01*
X109827452Y-92548587D01*
X109864466Y-92551500D01*
X109864474Y-92551500D01*
X111215526Y-92551500D01*
X111215534Y-92551500D01*
X111252548Y-92548587D01*
X111252550Y-92548586D01*
X111252552Y-92548586D01*
X111294323Y-92536449D01*
X111410959Y-92502564D01*
X111552947Y-92418592D01*
X111669592Y-92301947D01*
X111669776Y-92301637D01*
X111703558Y-92244514D01*
X111754626Y-92196830D01*
X111823368Y-92184326D01*
X111887958Y-92210971D01*
X111917022Y-92244513D01*
X111950803Y-92301634D01*
X111950810Y-92301643D01*
X112067356Y-92418189D01*
X112067365Y-92418196D01*
X112209243Y-92502102D01*
X112209246Y-92502103D01*
X112367526Y-92548088D01*
X112367532Y-92548089D01*
X112404518Y-92550999D01*
X113755469Y-92550999D01*
X113755491Y-92550998D01*
X113792466Y-92548089D01*
X113950757Y-92502102D01*
X114092634Y-92418196D01*
X114092643Y-92418189D01*
X114209189Y-92301643D01*
X114209193Y-92301637D01*
X114242976Y-92244514D01*
X114294045Y-92196830D01*
X114362787Y-92184326D01*
X114427376Y-92210971D01*
X114456440Y-92244511D01*
X114490408Y-92301947D01*
X114490410Y-92301949D01*
X114490412Y-92301952D01*
X114607047Y-92418587D01*
X114607051Y-92418590D01*
X114607053Y-92418592D01*
X114749041Y-92502564D01*
X114790816Y-92514701D01*
X114907447Y-92548586D01*
X114907450Y-92548586D01*
X114907452Y-92548587D01*
X114944466Y-92551500D01*
X114944474Y-92551500D01*
X116295526Y-92551500D01*
X116295534Y-92551500D01*
X116332548Y-92548587D01*
X116332550Y-92548586D01*
X116332552Y-92548586D01*
X116374323Y-92536449D01*
X116490959Y-92502564D01*
X116632947Y-92418592D01*
X116749592Y-92301947D01*
X116783268Y-92245003D01*
X116834337Y-92197321D01*
X116903079Y-92184817D01*
X116967668Y-92211462D01*
X116996732Y-92245004D01*
X117030405Y-92301943D01*
X117030407Y-92301946D01*
X117030412Y-92301952D01*
X117147047Y-92418587D01*
X117147051Y-92418590D01*
X117147053Y-92418592D01*
X117289041Y-92502564D01*
X117330816Y-92514701D01*
X117447447Y-92548586D01*
X117447450Y-92548586D01*
X117447452Y-92548587D01*
X117484466Y-92551500D01*
X117484474Y-92551500D01*
X118835526Y-92551500D01*
X118835534Y-92551500D01*
X118872548Y-92548587D01*
X118872550Y-92548586D01*
X118872552Y-92548586D01*
X118914323Y-92536449D01*
X119030959Y-92502564D01*
X119172947Y-92418592D01*
X119289592Y-92301947D01*
X119323268Y-92245003D01*
X119374337Y-92197321D01*
X119443079Y-92184817D01*
X119507668Y-92211462D01*
X119536732Y-92245004D01*
X119570405Y-92301943D01*
X119570407Y-92301946D01*
X119570412Y-92301952D01*
X119687047Y-92418587D01*
X119687051Y-92418590D01*
X119687053Y-92418592D01*
X119829041Y-92502564D01*
X119870816Y-92514701D01*
X119987447Y-92548586D01*
X119987450Y-92548586D01*
X119987452Y-92548587D01*
X120024466Y-92551500D01*
X120024474Y-92551500D01*
X121375526Y-92551500D01*
X121375534Y-92551500D01*
X121412548Y-92548587D01*
X121412550Y-92548586D01*
X121412552Y-92548586D01*
X121454323Y-92536449D01*
X121570959Y-92502564D01*
X121712947Y-92418592D01*
X121829592Y-92301947D01*
X121863268Y-92245003D01*
X121914337Y-92197321D01*
X121983079Y-92184817D01*
X122047668Y-92211462D01*
X122076732Y-92245004D01*
X122110405Y-92301943D01*
X122110407Y-92301946D01*
X122110412Y-92301952D01*
X122227047Y-92418587D01*
X122227051Y-92418590D01*
X122227053Y-92418592D01*
X122369041Y-92502564D01*
X122410816Y-92514701D01*
X122527447Y-92548586D01*
X122527450Y-92548586D01*
X122527452Y-92548587D01*
X122564466Y-92551500D01*
X122564474Y-92551500D01*
X123915526Y-92551500D01*
X123915534Y-92551500D01*
X123952548Y-92548587D01*
X123952550Y-92548586D01*
X123952552Y-92548586D01*
X123994323Y-92536449D01*
X124110959Y-92502564D01*
X124252947Y-92418592D01*
X124369592Y-92301947D01*
X124453564Y-92159959D01*
X124499587Y-92001548D01*
X124502500Y-91964534D01*
X124502500Y-90060540D01*
X124502972Y-90049732D01*
X124507323Y-90000000D01*
X124507323Y-89999997D01*
X124502972Y-89950265D01*
X124502500Y-89939458D01*
X124502500Y-89705473D01*
X124502499Y-89705458D01*
X124499587Y-89668453D01*
X124499586Y-89668447D01*
X124453565Y-89510045D01*
X124453564Y-89510042D01*
X124453564Y-89510041D01*
X124392795Y-89407287D01*
X124369594Y-89368056D01*
X124369587Y-89368047D01*
X124274334Y-89272794D01*
X124260440Y-89256236D01*
X124210827Y-89185381D01*
X124210826Y-89185380D01*
X124054620Y-89029174D01*
X124054616Y-89029171D01*
X124054615Y-89029170D01*
X123873666Y-88902468D01*
X123873662Y-88902466D01*
X123873660Y-88902465D01*
X123673450Y-88809106D01*
X123673447Y-88809105D01*
X123673445Y-88809104D01*
X123460070Y-88751930D01*
X123460062Y-88751929D01*
X123240002Y-88732677D01*
X123239998Y-88732677D01*
X123019937Y-88751929D01*
X123019929Y-88751930D01*
X122806554Y-88809104D01*
X122806548Y-88809107D01*
X122606340Y-88902465D01*
X122606338Y-88902466D01*
X122425381Y-89029172D01*
X122269172Y-89185382D01*
X122219558Y-89256237D01*
X122205666Y-89272792D01*
X122110413Y-89368046D01*
X122110408Y-89368053D01*
X122076732Y-89424996D01*
X122025662Y-89472679D01*
X121956921Y-89485182D01*
X121892331Y-89458536D01*
X121863268Y-89424996D01*
X121829592Y-89368053D01*
X121829589Y-89368050D01*
X121829587Y-89368047D01*
X121734334Y-89272794D01*
X121720440Y-89256236D01*
X121670827Y-89185381D01*
X121670826Y-89185380D01*
X121514620Y-89029174D01*
X121514616Y-89029171D01*
X121514615Y-89029170D01*
X121333666Y-88902468D01*
X121333662Y-88902466D01*
X121333660Y-88902465D01*
X121133450Y-88809106D01*
X121133447Y-88809105D01*
X121133445Y-88809104D01*
X120920070Y-88751930D01*
X120920062Y-88751929D01*
X120700002Y-88732677D01*
X120699998Y-88732677D01*
X120479937Y-88751929D01*
X120479929Y-88751930D01*
X120266554Y-88809104D01*
X120266548Y-88809107D01*
X120066340Y-88902465D01*
X120066338Y-88902466D01*
X119885381Y-89029172D01*
X119729172Y-89185382D01*
X119679558Y-89256237D01*
X119665666Y-89272792D01*
X119570413Y-89368046D01*
X119570408Y-89368053D01*
X119536732Y-89424996D01*
X119485662Y-89472679D01*
X119416921Y-89485182D01*
X119352331Y-89458536D01*
X119323268Y-89424996D01*
X119289592Y-89368053D01*
X119289589Y-89368050D01*
X119289587Y-89368047D01*
X119194334Y-89272794D01*
X119180440Y-89256236D01*
X119130827Y-89185381D01*
X119130826Y-89185380D01*
X118974620Y-89029174D01*
X118974616Y-89029171D01*
X118974615Y-89029170D01*
X118793666Y-88902468D01*
X118793662Y-88902466D01*
X118793660Y-88902465D01*
X118593450Y-88809106D01*
X118593447Y-88809105D01*
X118593445Y-88809104D01*
X118380070Y-88751930D01*
X118380062Y-88751929D01*
X118160002Y-88732677D01*
X118159998Y-88732677D01*
X117939937Y-88751929D01*
X117939929Y-88751930D01*
X117726554Y-88809104D01*
X117726548Y-88809107D01*
X117526340Y-88902465D01*
X117526338Y-88902466D01*
X117345381Y-89029172D01*
X117189172Y-89185382D01*
X117139558Y-89256237D01*
X117125666Y-89272792D01*
X117030413Y-89368046D01*
X117030408Y-89368053D01*
X116996732Y-89424996D01*
X116945662Y-89472679D01*
X116876921Y-89485182D01*
X116812331Y-89458536D01*
X116783268Y-89424996D01*
X116749592Y-89368053D01*
X116749589Y-89368050D01*
X116749587Y-89368047D01*
X116654334Y-89272794D01*
X116640440Y-89256236D01*
X116590827Y-89185381D01*
X116590826Y-89185380D01*
X116434620Y-89029174D01*
X116434616Y-89029171D01*
X116434615Y-89029170D01*
X116253666Y-88902468D01*
X116253662Y-88902466D01*
X116253660Y-88902465D01*
X116053450Y-88809106D01*
X116053447Y-88809105D01*
X116053445Y-88809104D01*
X115840070Y-88751930D01*
X115840062Y-88751929D01*
X115620002Y-88732677D01*
X115619998Y-88732677D01*
X115399937Y-88751929D01*
X115399929Y-88751930D01*
X115186554Y-88809104D01*
X115186548Y-88809107D01*
X114986340Y-88902465D01*
X114986338Y-88902466D01*
X114805381Y-89029172D01*
X114649172Y-89185382D01*
X114599558Y-89256237D01*
X114585666Y-89272792D01*
X114490413Y-89368046D01*
X114490403Y-89368058D01*
X114456440Y-89425487D01*
X114405371Y-89473170D01*
X114336629Y-89485673D01*
X114272040Y-89459027D01*
X114242977Y-89425486D01*
X114209195Y-89368364D01*
X114209192Y-89368360D01*
X114137191Y-89296360D01*
X113517646Y-89915904D01*
X113494208Y-89828429D01*
X113435689Y-89727070D01*
X113352930Y-89644311D01*
X113251571Y-89585792D01*
X113164095Y-89562352D01*
X113778188Y-88948259D01*
X113778187Y-88948258D01*
X113713411Y-88902901D01*
X113713405Y-88902898D01*
X113513284Y-88809580D01*
X113513270Y-88809575D01*
X113299986Y-88752426D01*
X113299976Y-88752424D01*
X113080001Y-88733179D01*
X113079999Y-88733179D01*
X112860023Y-88752424D01*
X112860013Y-88752426D01*
X112646729Y-88809575D01*
X112646720Y-88809579D01*
X112446590Y-88902901D01*
X112381811Y-88948258D01*
X112995905Y-89562352D01*
X112908429Y-89585792D01*
X112807070Y-89644311D01*
X112724311Y-89727070D01*
X112665792Y-89828429D01*
X112642352Y-89915905D01*
X112022807Y-89296360D01*
X111950810Y-89368357D01*
X111950800Y-89368370D01*
X111917021Y-89425487D01*
X111865952Y-89473170D01*
X111797210Y-89485673D01*
X111732621Y-89459027D01*
X111703558Y-89425486D01*
X111669594Y-89368056D01*
X111669587Y-89368047D01*
X111574334Y-89272794D01*
X111560440Y-89256236D01*
X111510827Y-89185381D01*
X111510826Y-89185380D01*
X111354620Y-89029174D01*
X111354616Y-89029171D01*
X111354615Y-89029170D01*
X111173666Y-88902468D01*
X111173662Y-88902466D01*
X111173660Y-88902465D01*
X110973450Y-88809106D01*
X110973447Y-88809105D01*
X110973445Y-88809104D01*
X110760070Y-88751930D01*
X110760062Y-88751929D01*
X110540002Y-88732677D01*
X110539998Y-88732677D01*
X110319937Y-88751929D01*
X110319929Y-88751930D01*
X110106554Y-88809104D01*
X110106548Y-88809107D01*
X109906340Y-88902465D01*
X109906338Y-88902466D01*
X109725381Y-89029172D01*
X109569172Y-89185382D01*
X109519558Y-89256237D01*
X109505666Y-89272792D01*
X109410413Y-89368046D01*
X109410408Y-89368053D01*
X109376732Y-89424996D01*
X109325662Y-89472679D01*
X109256921Y-89485182D01*
X109192331Y-89458536D01*
X109163268Y-89424996D01*
X109129592Y-89368053D01*
X109129589Y-89368050D01*
X109129587Y-89368047D01*
X109034334Y-89272794D01*
X109020440Y-89256236D01*
X108970827Y-89185381D01*
X108970826Y-89185380D01*
X108814620Y-89029174D01*
X108814616Y-89029171D01*
X108814615Y-89029170D01*
X108633666Y-88902468D01*
X108633662Y-88902466D01*
X108633660Y-88902465D01*
X108433450Y-88809106D01*
X108433447Y-88809105D01*
X108433445Y-88809104D01*
X108220070Y-88751930D01*
X108220062Y-88751929D01*
X108000002Y-88732677D01*
X107999998Y-88732677D01*
X107779937Y-88751929D01*
X107779929Y-88751930D01*
X107566554Y-88809104D01*
X107566548Y-88809107D01*
X107366340Y-88902465D01*
X107366338Y-88902466D01*
X107185381Y-89029172D01*
X107029172Y-89185382D01*
X106979558Y-89256237D01*
X106965666Y-89272792D01*
X106870413Y-89368046D01*
X106870405Y-89368056D01*
X106786435Y-89510042D01*
X106786434Y-89510045D01*
X106740413Y-89668447D01*
X106740412Y-89668453D01*
X106737500Y-89705458D01*
X106737500Y-89939458D01*
X106737028Y-89950265D01*
X106732677Y-89999997D01*
X106000000Y-89999997D01*
X106000000Y-82411421D01*
X110714500Y-82411421D01*
X110714500Y-82588578D01*
X110742214Y-82763556D01*
X110796956Y-82932039D01*
X110796957Y-82932042D01*
X110877386Y-83089890D01*
X110981517Y-83233214D01*
X111106786Y-83358483D01*
X111250110Y-83462614D01*
X111318577Y-83497500D01*
X111407957Y-83543042D01*
X111407960Y-83543043D01*
X111492201Y-83570414D01*
X111576445Y-83597786D01*
X111751421Y-83625500D01*
X111751422Y-83625500D01*
X111928578Y-83625500D01*
X111928579Y-83625500D01*
X112103555Y-83597786D01*
X112272042Y-83543042D01*
X112429890Y-83462614D01*
X112573214Y-83358483D01*
X112698483Y-83233214D01*
X112802614Y-83089890D01*
X112883042Y-82932042D01*
X112937786Y-82763555D01*
X112965500Y-82588579D01*
X112965500Y-82411421D01*
X112956165Y-82352486D01*
X114669500Y-82352486D01*
X114669500Y-82647513D01*
X114684778Y-82763555D01*
X114708007Y-82939993D01*
X114784361Y-83224951D01*
X114784364Y-83224961D01*
X114897254Y-83497500D01*
X114897258Y-83497510D01*
X115044761Y-83752993D01*
X115224352Y-83987040D01*
X115224358Y-83987047D01*
X115432952Y-84195641D01*
X115432959Y-84195647D01*
X115667006Y-84375238D01*
X115922489Y-84522741D01*
X115922490Y-84522741D01*
X115922493Y-84522743D01*
X116195048Y-84635639D01*
X116480007Y-84711993D01*
X116772494Y-84750500D01*
X116772501Y-84750500D01*
X117067499Y-84750500D01*
X117067506Y-84750500D01*
X117359993Y-84711993D01*
X117644952Y-84635639D01*
X117917507Y-84522743D01*
X118172994Y-84375238D01*
X118407042Y-84195646D01*
X118615646Y-83987042D01*
X118795238Y-83752994D01*
X118942743Y-83497507D01*
X119055639Y-83224952D01*
X119131993Y-82939993D01*
X119170500Y-82647506D01*
X119170500Y-82411421D01*
X120874500Y-82411421D01*
X120874500Y-82588578D01*
X120902214Y-82763556D01*
X120956956Y-82932039D01*
X120956957Y-82932042D01*
X121037386Y-83089890D01*
X121141517Y-83233214D01*
X121266786Y-83358483D01*
X121410110Y-83462614D01*
X121478577Y-83497500D01*
X121567957Y-83543042D01*
X121567960Y-83543043D01*
X121652201Y-83570414D01*
X121736445Y-83597786D01*
X121911421Y-83625500D01*
X121911422Y-83625500D01*
X122088578Y-83625500D01*
X122088579Y-83625500D01*
X122263555Y-83597786D01*
X122432042Y-83543042D01*
X122589890Y-83462614D01*
X122733214Y-83358483D01*
X122858483Y-83233214D01*
X122962614Y-83089890D01*
X123043042Y-82932042D01*
X123097786Y-82763555D01*
X123125500Y-82588579D01*
X123125500Y-82411421D01*
X129754500Y-82411421D01*
X129754500Y-82588578D01*
X129782214Y-82763556D01*
X129836956Y-82932039D01*
X129836957Y-82932042D01*
X129917386Y-83089890D01*
X130021517Y-83233214D01*
X130146786Y-83358483D01*
X130290110Y-83462614D01*
X130358577Y-83497500D01*
X130447957Y-83543042D01*
X130447960Y-83543043D01*
X130532201Y-83570414D01*
X130616445Y-83597786D01*
X130791421Y-83625500D01*
X130791422Y-83625500D01*
X130968578Y-83625500D01*
X130968579Y-83625500D01*
X131143555Y-83597786D01*
X131312042Y-83543042D01*
X131469890Y-83462614D01*
X131613214Y-83358483D01*
X131738483Y-83233214D01*
X131842614Y-83089890D01*
X131923042Y-82932042D01*
X131977786Y-82763555D01*
X132005500Y-82588579D01*
X132005500Y-82411421D01*
X131996165Y-82352486D01*
X133709500Y-82352486D01*
X133709500Y-82647513D01*
X133724778Y-82763555D01*
X133748007Y-82939993D01*
X133824361Y-83224951D01*
X133824364Y-83224961D01*
X133937254Y-83497500D01*
X133937258Y-83497510D01*
X134084761Y-83752993D01*
X134264352Y-83987040D01*
X134264358Y-83987047D01*
X134472952Y-84195641D01*
X134472959Y-84195647D01*
X134707006Y-84375238D01*
X134962489Y-84522741D01*
X134962490Y-84522741D01*
X134962493Y-84522743D01*
X135235048Y-84635639D01*
X135520007Y-84711993D01*
X135812494Y-84750500D01*
X135812501Y-84750500D01*
X136107499Y-84750500D01*
X136107506Y-84750500D01*
X136399993Y-84711993D01*
X136684952Y-84635639D01*
X136957507Y-84522743D01*
X137212994Y-84375238D01*
X137447042Y-84195646D01*
X137655646Y-83987042D01*
X137835238Y-83752994D01*
X137982743Y-83497507D01*
X138095639Y-83224952D01*
X138171993Y-82939993D01*
X138210500Y-82647506D01*
X138210500Y-82411421D01*
X139914500Y-82411421D01*
X139914500Y-82588578D01*
X139942214Y-82763556D01*
X139996956Y-82932039D01*
X139996957Y-82932042D01*
X140077386Y-83089890D01*
X140181517Y-83233214D01*
X140306786Y-83358483D01*
X140450110Y-83462614D01*
X140518577Y-83497500D01*
X140607957Y-83543042D01*
X140607960Y-83543043D01*
X140692201Y-83570414D01*
X140776445Y-83597786D01*
X140951421Y-83625500D01*
X140951422Y-83625500D01*
X141128578Y-83625500D01*
X141128579Y-83625500D01*
X141303555Y-83597786D01*
X141472042Y-83543042D01*
X141629890Y-83462614D01*
X141773214Y-83358483D01*
X141898483Y-83233214D01*
X142002614Y-83089890D01*
X142083042Y-82932042D01*
X142137786Y-82763555D01*
X142165500Y-82588579D01*
X142165500Y-82411421D01*
X148794500Y-82411421D01*
X148794500Y-82588578D01*
X148822214Y-82763556D01*
X148876956Y-82932039D01*
X148876957Y-82932042D01*
X148957386Y-83089890D01*
X149061517Y-83233214D01*
X149186786Y-83358483D01*
X149330110Y-83462614D01*
X149398577Y-83497500D01*
X149487957Y-83543042D01*
X149487960Y-83543043D01*
X149572201Y-83570414D01*
X149656445Y-83597786D01*
X149831421Y-83625500D01*
X149831422Y-83625500D01*
X150008578Y-83625500D01*
X150008579Y-83625500D01*
X150183555Y-83597786D01*
X150352042Y-83543042D01*
X150509890Y-83462614D01*
X150653214Y-83358483D01*
X150778483Y-83233214D01*
X150882614Y-83089890D01*
X150963042Y-82932042D01*
X151017786Y-82763555D01*
X151045500Y-82588579D01*
X151045500Y-82411421D01*
X151036165Y-82352486D01*
X152749500Y-82352486D01*
X152749500Y-82647513D01*
X152764778Y-82763555D01*
X152788007Y-82939993D01*
X152864361Y-83224951D01*
X152864364Y-83224961D01*
X152977254Y-83497500D01*
X152977258Y-83497510D01*
X153124761Y-83752993D01*
X153304352Y-83987040D01*
X153304358Y-83987047D01*
X153512952Y-84195641D01*
X153512959Y-84195647D01*
X153747006Y-84375238D01*
X154002489Y-84522741D01*
X154002490Y-84522741D01*
X154002493Y-84522743D01*
X154275048Y-84635639D01*
X154560007Y-84711993D01*
X154852494Y-84750500D01*
X154852501Y-84750500D01*
X155147499Y-84750500D01*
X155147506Y-84750500D01*
X155439993Y-84711993D01*
X155724952Y-84635639D01*
X155997507Y-84522743D01*
X156252994Y-84375238D01*
X156487042Y-84195646D01*
X156695646Y-83987042D01*
X156875238Y-83752994D01*
X157022743Y-83497507D01*
X157135639Y-83224952D01*
X157211993Y-82939993D01*
X157250500Y-82647506D01*
X157250500Y-82411421D01*
X158954500Y-82411421D01*
X158954500Y-82588578D01*
X158982214Y-82763556D01*
X159036956Y-82932039D01*
X159036957Y-82932042D01*
X159117386Y-83089890D01*
X159221517Y-83233214D01*
X159346786Y-83358483D01*
X159490110Y-83462614D01*
X159558577Y-83497500D01*
X159647957Y-83543042D01*
X159647960Y-83543043D01*
X159732201Y-83570414D01*
X159816445Y-83597786D01*
X159991421Y-83625500D01*
X159991422Y-83625500D01*
X160168578Y-83625500D01*
X160168579Y-83625500D01*
X160343555Y-83597786D01*
X160512042Y-83543042D01*
X160669890Y-83462614D01*
X160813214Y-83358483D01*
X160938483Y-83233214D01*
X161042614Y-83089890D01*
X161123042Y-82932042D01*
X161177786Y-82763555D01*
X161205500Y-82588579D01*
X161205500Y-82411421D01*
X167834500Y-82411421D01*
X167834500Y-82588578D01*
X167862214Y-82763556D01*
X167916956Y-82932039D01*
X167916957Y-82932042D01*
X167997386Y-83089890D01*
X168101517Y-83233214D01*
X168226786Y-83358483D01*
X168370110Y-83462614D01*
X168438577Y-83497500D01*
X168527957Y-83543042D01*
X168527960Y-83543043D01*
X168612201Y-83570414D01*
X168696445Y-83597786D01*
X168871421Y-83625500D01*
X168871422Y-83625500D01*
X169048578Y-83625500D01*
X169048579Y-83625500D01*
X169223555Y-83597786D01*
X169392042Y-83543042D01*
X169549890Y-83462614D01*
X169693214Y-83358483D01*
X169818483Y-83233214D01*
X169922614Y-83089890D01*
X170003042Y-82932042D01*
X170057786Y-82763555D01*
X170085500Y-82588579D01*
X170085500Y-82411421D01*
X170076165Y-82352486D01*
X171789500Y-82352486D01*
X171789500Y-82647513D01*
X171804778Y-82763555D01*
X171828007Y-82939993D01*
X171904361Y-83224951D01*
X171904364Y-83224961D01*
X172017254Y-83497500D01*
X172017258Y-83497510D01*
X172164761Y-83752993D01*
X172344352Y-83987040D01*
X172344358Y-83987047D01*
X172552952Y-84195641D01*
X172552959Y-84195647D01*
X172787006Y-84375238D01*
X173042489Y-84522741D01*
X173042490Y-84522741D01*
X173042493Y-84522743D01*
X173315048Y-84635639D01*
X173600007Y-84711993D01*
X173892494Y-84750500D01*
X173892501Y-84750500D01*
X174187499Y-84750500D01*
X174187506Y-84750500D01*
X174479993Y-84711993D01*
X174764952Y-84635639D01*
X175037507Y-84522743D01*
X175292994Y-84375238D01*
X175527042Y-84195646D01*
X175735646Y-83987042D01*
X175915238Y-83752994D01*
X176062743Y-83497507D01*
X176175639Y-83224952D01*
X176251993Y-82939993D01*
X176290500Y-82647506D01*
X176290500Y-82411421D01*
X177994500Y-82411421D01*
X177994500Y-82588578D01*
X178022214Y-82763556D01*
X178076956Y-82932039D01*
X178076957Y-82932042D01*
X178157386Y-83089890D01*
X178261517Y-83233214D01*
X178386786Y-83358483D01*
X178530110Y-83462614D01*
X178598577Y-83497500D01*
X178687957Y-83543042D01*
X178687960Y-83543043D01*
X178772201Y-83570414D01*
X178856445Y-83597786D01*
X179031421Y-83625500D01*
X179031422Y-83625500D01*
X179208578Y-83625500D01*
X179208579Y-83625500D01*
X179383555Y-83597786D01*
X179552042Y-83543042D01*
X179709890Y-83462614D01*
X179853214Y-83358483D01*
X179978483Y-83233214D01*
X180082614Y-83089890D01*
X180163042Y-82932042D01*
X180217786Y-82763555D01*
X180245500Y-82588579D01*
X180245500Y-82411421D01*
X186874500Y-82411421D01*
X186874500Y-82588578D01*
X186902214Y-82763556D01*
X186956956Y-82932039D01*
X186956957Y-82932042D01*
X187037386Y-83089890D01*
X187141517Y-83233214D01*
X187266786Y-83358483D01*
X187410110Y-83462614D01*
X187478577Y-83497500D01*
X187567957Y-83543042D01*
X187567960Y-83543043D01*
X187652201Y-83570414D01*
X187736445Y-83597786D01*
X187911421Y-83625500D01*
X187911422Y-83625500D01*
X188088578Y-83625500D01*
X188088579Y-83625500D01*
X188263555Y-83597786D01*
X188432042Y-83543042D01*
X188589890Y-83462614D01*
X188733214Y-83358483D01*
X188858483Y-83233214D01*
X188962614Y-83089890D01*
X189043042Y-82932042D01*
X189097786Y-82763555D01*
X189125500Y-82588579D01*
X189125500Y-82411421D01*
X189116165Y-82352486D01*
X190829500Y-82352486D01*
X190829500Y-82647513D01*
X190844778Y-82763555D01*
X190868007Y-82939993D01*
X190944361Y-83224951D01*
X190944364Y-83224961D01*
X191057254Y-83497500D01*
X191057258Y-83497510D01*
X191204761Y-83752993D01*
X191384352Y-83987040D01*
X191384358Y-83987047D01*
X191592952Y-84195641D01*
X191592959Y-84195647D01*
X191827006Y-84375238D01*
X192082489Y-84522741D01*
X192082490Y-84522741D01*
X192082493Y-84522743D01*
X192355048Y-84635639D01*
X192640007Y-84711993D01*
X192932494Y-84750500D01*
X192932501Y-84750500D01*
X193227499Y-84750500D01*
X193227506Y-84750500D01*
X193519993Y-84711993D01*
X193804952Y-84635639D01*
X194077507Y-84522743D01*
X194332994Y-84375238D01*
X194567042Y-84195646D01*
X194775646Y-83987042D01*
X194955238Y-83752994D01*
X195102743Y-83497507D01*
X195215639Y-83224952D01*
X195291993Y-82939993D01*
X195330500Y-82647506D01*
X195330500Y-82411421D01*
X197034500Y-82411421D01*
X197034500Y-82588578D01*
X197062214Y-82763556D01*
X197116956Y-82932039D01*
X197116957Y-82932042D01*
X197197386Y-83089890D01*
X197301517Y-83233214D01*
X197426786Y-83358483D01*
X197570110Y-83462614D01*
X197638577Y-83497500D01*
X197727957Y-83543042D01*
X197727960Y-83543043D01*
X197812201Y-83570414D01*
X197896445Y-83597786D01*
X198071421Y-83625500D01*
X198071422Y-83625500D01*
X198248578Y-83625500D01*
X198248579Y-83625500D01*
X198423555Y-83597786D01*
X198592042Y-83543042D01*
X198749890Y-83462614D01*
X198893214Y-83358483D01*
X199018483Y-83233214D01*
X199122614Y-83089890D01*
X199203042Y-82932042D01*
X199257786Y-82763555D01*
X199285500Y-82588579D01*
X199285500Y-82411421D01*
X199257786Y-82236445D01*
X199203042Y-82067958D01*
X199203042Y-82067957D01*
X199122613Y-81910109D01*
X199111789Y-81895211D01*
X199018483Y-81766786D01*
X198893214Y-81641517D01*
X198749890Y-81537386D01*
X198592042Y-81456957D01*
X198592039Y-81456956D01*
X198423556Y-81402214D01*
X198336067Y-81388357D01*
X198248579Y-81374500D01*
X198071421Y-81374500D01*
X198013095Y-81383738D01*
X197896443Y-81402214D01*
X197727960Y-81456956D01*
X197727957Y-81456957D01*
X197570109Y-81537386D01*
X197492745Y-81593595D01*
X197426786Y-81641517D01*
X197426784Y-81641519D01*
X197426783Y-81641519D01*
X197301519Y-81766783D01*
X197301519Y-81766784D01*
X197301517Y-81766786D01*
X197256796Y-81828338D01*
X197197386Y-81910109D01*
X197116957Y-82067957D01*
X197116956Y-82067960D01*
X197062214Y-82236443D01*
X197034500Y-82411421D01*
X195330500Y-82411421D01*
X195330500Y-82352494D01*
X195291993Y-82060007D01*
X195215639Y-81775048D01*
X195102743Y-81502493D01*
X195076453Y-81456958D01*
X194955238Y-81247006D01*
X194775647Y-81012959D01*
X194775641Y-81012952D01*
X194567047Y-80804358D01*
X194567040Y-80804352D01*
X194332993Y-80624761D01*
X194077510Y-80477258D01*
X194077500Y-80477254D01*
X193804961Y-80364364D01*
X193804954Y-80364362D01*
X193804952Y-80364361D01*
X193519993Y-80288007D01*
X193471113Y-80281571D01*
X193227513Y-80249500D01*
X193227506Y-80249500D01*
X192932494Y-80249500D01*
X192932486Y-80249500D01*
X192654085Y-80286153D01*
X192640007Y-80288007D01*
X192355048Y-80364361D01*
X192355038Y-80364364D01*
X192082499Y-80477254D01*
X192082489Y-80477258D01*
X191827006Y-80624761D01*
X191592959Y-80804352D01*
X191592952Y-80804358D01*
X191384358Y-81012952D01*
X191384352Y-81012959D01*
X191204761Y-81247006D01*
X191057258Y-81502489D01*
X191057254Y-81502499D01*
X190944364Y-81775038D01*
X190944361Y-81775048D01*
X190908172Y-81910110D01*
X190868008Y-82060004D01*
X190868006Y-82060015D01*
X190829500Y-82352486D01*
X189116165Y-82352486D01*
X189097786Y-82236445D01*
X189043042Y-82067958D01*
X189043042Y-82067957D01*
X188962613Y-81910109D01*
X188951789Y-81895211D01*
X188928309Y-81829405D01*
X188944134Y-81761351D01*
X188994239Y-81712656D01*
X189062717Y-81698780D01*
X189070589Y-81699710D01*
X189138851Y-81709999D01*
X189138857Y-81710000D01*
X189401143Y-81710000D01*
X189401151Y-81709999D01*
X189660499Y-81670909D01*
X189660505Y-81670907D01*
X189911143Y-81593595D01*
X190147445Y-81479798D01*
X190147447Y-81479797D01*
X190319168Y-81362720D01*
X189594025Y-80637578D01*
X189625258Y-80624641D01*
X189748097Y-80542563D01*
X189852563Y-80438097D01*
X189934641Y-80315258D01*
X189947578Y-80284025D01*
X190672125Y-81008572D01*
X190719971Y-80948573D01*
X190851116Y-80721426D01*
X190946941Y-80477270D01*
X191005306Y-80221550D01*
X191005307Y-80221545D01*
X191024907Y-79960004D01*
X191024907Y-79959995D01*
X191005307Y-79698454D01*
X191005306Y-79698449D01*
X190946941Y-79442729D01*
X190851116Y-79198573D01*
X190851117Y-79198573D01*
X190719972Y-78971426D01*
X190672124Y-78911427D01*
X189947577Y-79635973D01*
X189934641Y-79604742D01*
X189852563Y-79481903D01*
X189748097Y-79377437D01*
X189625258Y-79295359D01*
X189594025Y-79282421D01*
X190319168Y-78557278D01*
X190147454Y-78440206D01*
X190147445Y-78440201D01*
X189911142Y-78326404D01*
X189911144Y-78326404D01*
X189660505Y-78249092D01*
X189660499Y-78249090D01*
X189401151Y-78210000D01*
X189138848Y-78210000D01*
X188879500Y-78249090D01*
X188879494Y-78249092D01*
X188628858Y-78326404D01*
X188628854Y-78326405D01*
X188392547Y-78440205D01*
X188392539Y-78440210D01*
X188220830Y-78557277D01*
X188945974Y-79282421D01*
X188914742Y-79295359D01*
X188791903Y-79377437D01*
X188687437Y-79481903D01*
X188605359Y-79604742D01*
X188592422Y-79635974D01*
X187867875Y-78911427D01*
X187867874Y-78911427D01*
X187820028Y-78971425D01*
X187688883Y-79198573D01*
X187593058Y-79442729D01*
X187534693Y-79698449D01*
X187534692Y-79698454D01*
X187515093Y-79959995D01*
X187515093Y-79960004D01*
X187534692Y-80221545D01*
X187534693Y-80221550D01*
X187593058Y-80477270D01*
X187688883Y-80721426D01*
X187688882Y-80721426D01*
X187820027Y-80948573D01*
X187867874Y-81008571D01*
X188592421Y-80284024D01*
X188605359Y-80315258D01*
X188687437Y-80438097D01*
X188791903Y-80542563D01*
X188914742Y-80624641D01*
X188945974Y-80637578D01*
X188237255Y-81346296D01*
X188175932Y-81379781D01*
X188130179Y-81381088D01*
X188088579Y-81374500D01*
X187911421Y-81374500D01*
X187853095Y-81383738D01*
X187736443Y-81402214D01*
X187567960Y-81456956D01*
X187567957Y-81456957D01*
X187410109Y-81537386D01*
X187332745Y-81593595D01*
X187266786Y-81641517D01*
X187266784Y-81641519D01*
X187266783Y-81641519D01*
X187141519Y-81766783D01*
X187141519Y-81766784D01*
X187141517Y-81766786D01*
X187096796Y-81828338D01*
X187037386Y-81910109D01*
X186956957Y-82067957D01*
X186956956Y-82067960D01*
X186902214Y-82236443D01*
X186874500Y-82411421D01*
X180245500Y-82411421D01*
X180217786Y-82236445D01*
X180163042Y-82067958D01*
X180163042Y-82067957D01*
X180082613Y-81910109D01*
X180071789Y-81895211D01*
X179978483Y-81766786D01*
X179853214Y-81641517D01*
X179709890Y-81537386D01*
X179552042Y-81456957D01*
X179552039Y-81456956D01*
X179383556Y-81402214D01*
X179296067Y-81388357D01*
X179208579Y-81374500D01*
X179031421Y-81374500D01*
X178973095Y-81383738D01*
X178856443Y-81402214D01*
X178687960Y-81456956D01*
X178687957Y-81456957D01*
X178530109Y-81537386D01*
X178452745Y-81593595D01*
X178386786Y-81641517D01*
X178386784Y-81641519D01*
X178386783Y-81641519D01*
X178261519Y-81766783D01*
X178261519Y-81766784D01*
X178261517Y-81766786D01*
X178216796Y-81828338D01*
X178157386Y-81910109D01*
X178076957Y-82067957D01*
X178076956Y-82067960D01*
X178022214Y-82236443D01*
X177994500Y-82411421D01*
X176290500Y-82411421D01*
X176290500Y-82352494D01*
X176251993Y-82060007D01*
X176175639Y-81775048D01*
X176062743Y-81502493D01*
X176036453Y-81456958D01*
X175915238Y-81247006D01*
X175735647Y-81012959D01*
X175735641Y-81012952D01*
X175527047Y-80804358D01*
X175527040Y-80804352D01*
X175292993Y-80624761D01*
X175037510Y-80477258D01*
X175037500Y-80477254D01*
X174764961Y-80364364D01*
X174764954Y-80364362D01*
X174764952Y-80364361D01*
X174479993Y-80288007D01*
X174431113Y-80281571D01*
X174187513Y-80249500D01*
X174187506Y-80249500D01*
X173892494Y-80249500D01*
X173892486Y-80249500D01*
X173614085Y-80286153D01*
X173600007Y-80288007D01*
X173315048Y-80364361D01*
X173315038Y-80364364D01*
X173042499Y-80477254D01*
X173042489Y-80477258D01*
X172787006Y-80624761D01*
X172552959Y-80804352D01*
X172552952Y-80804358D01*
X172344358Y-81012952D01*
X172344352Y-81012959D01*
X172164761Y-81247006D01*
X172017258Y-81502489D01*
X172017254Y-81502499D01*
X171904364Y-81775038D01*
X171904361Y-81775048D01*
X171868172Y-81910110D01*
X171828008Y-82060004D01*
X171828006Y-82060015D01*
X171789500Y-82352486D01*
X170076165Y-82352486D01*
X170057786Y-82236445D01*
X170003042Y-82067958D01*
X170003042Y-82067957D01*
X169922613Y-81910109D01*
X169911789Y-81895211D01*
X169888309Y-81829405D01*
X169904134Y-81761351D01*
X169954239Y-81712656D01*
X170022717Y-81698780D01*
X170030589Y-81699710D01*
X170098851Y-81709999D01*
X170098857Y-81710000D01*
X170361143Y-81710000D01*
X170361151Y-81709999D01*
X170620499Y-81670909D01*
X170620505Y-81670907D01*
X170871143Y-81593595D01*
X171107445Y-81479798D01*
X171107447Y-81479797D01*
X171279168Y-81362720D01*
X170554025Y-80637578D01*
X170585258Y-80624641D01*
X170708097Y-80542563D01*
X170812563Y-80438097D01*
X170894641Y-80315258D01*
X170907578Y-80284025D01*
X171632125Y-81008572D01*
X171679971Y-80948573D01*
X171811116Y-80721426D01*
X171906941Y-80477270D01*
X171965306Y-80221550D01*
X171965307Y-80221545D01*
X171984907Y-79960004D01*
X171984907Y-79959995D01*
X171965307Y-79698454D01*
X171965306Y-79698449D01*
X171906941Y-79442729D01*
X171811116Y-79198573D01*
X171811117Y-79198573D01*
X171679972Y-78971426D01*
X171632124Y-78911427D01*
X170907577Y-79635973D01*
X170894641Y-79604742D01*
X170812563Y-79481903D01*
X170708097Y-79377437D01*
X170585258Y-79295359D01*
X170554025Y-79282421D01*
X171279168Y-78557278D01*
X171107454Y-78440206D01*
X171107445Y-78440201D01*
X170871142Y-78326404D01*
X170871144Y-78326404D01*
X170620505Y-78249092D01*
X170620499Y-78249090D01*
X170361151Y-78210000D01*
X170098848Y-78210000D01*
X169839500Y-78249090D01*
X169839494Y-78249092D01*
X169588858Y-78326404D01*
X169588854Y-78326405D01*
X169352547Y-78440205D01*
X169352539Y-78440210D01*
X169180830Y-78557277D01*
X169905974Y-79282421D01*
X169874742Y-79295359D01*
X169751903Y-79377437D01*
X169647437Y-79481903D01*
X169565359Y-79604742D01*
X169552422Y-79635974D01*
X168827874Y-78911427D01*
X168780028Y-78971425D01*
X168648883Y-79198573D01*
X168553058Y-79442729D01*
X168494693Y-79698449D01*
X168494692Y-79698454D01*
X168475093Y-79959995D01*
X168475093Y-79960004D01*
X168494692Y-80221545D01*
X168494693Y-80221550D01*
X168553058Y-80477270D01*
X168648883Y-80721426D01*
X168648882Y-80721426D01*
X168780027Y-80948573D01*
X168827874Y-81008571D01*
X169552421Y-80284024D01*
X169565359Y-80315258D01*
X169647437Y-80438097D01*
X169751903Y-80542563D01*
X169874742Y-80624641D01*
X169905974Y-80637578D01*
X169197255Y-81346296D01*
X169135932Y-81379781D01*
X169090179Y-81381088D01*
X169048579Y-81374500D01*
X168871421Y-81374500D01*
X168813095Y-81383738D01*
X168696443Y-81402214D01*
X168527960Y-81456956D01*
X168527957Y-81456957D01*
X168370109Y-81537386D01*
X168292745Y-81593595D01*
X168226786Y-81641517D01*
X168226784Y-81641519D01*
X168226783Y-81641519D01*
X168101519Y-81766783D01*
X168101519Y-81766784D01*
X168101517Y-81766786D01*
X168056796Y-81828338D01*
X167997386Y-81910109D01*
X167916957Y-82067957D01*
X167916956Y-82067960D01*
X167862214Y-82236443D01*
X167834500Y-82411421D01*
X161205500Y-82411421D01*
X161177786Y-82236445D01*
X161123042Y-82067958D01*
X161123042Y-82067957D01*
X161042613Y-81910109D01*
X161031789Y-81895211D01*
X160938483Y-81766786D01*
X160813214Y-81641517D01*
X160669890Y-81537386D01*
X160512042Y-81456957D01*
X160512039Y-81456956D01*
X160343556Y-81402214D01*
X160256067Y-81388357D01*
X160168579Y-81374500D01*
X159991421Y-81374500D01*
X159933095Y-81383738D01*
X159816443Y-81402214D01*
X159647960Y-81456956D01*
X159647957Y-81456957D01*
X159490109Y-81537386D01*
X159412745Y-81593595D01*
X159346786Y-81641517D01*
X159346784Y-81641519D01*
X159346783Y-81641519D01*
X159221519Y-81766783D01*
X159221519Y-81766784D01*
X159221517Y-81766786D01*
X159176796Y-81828338D01*
X159117386Y-81910109D01*
X159036957Y-82067957D01*
X159036956Y-82067960D01*
X158982214Y-82236443D01*
X158954500Y-82411421D01*
X157250500Y-82411421D01*
X157250500Y-82352494D01*
X157211993Y-82060007D01*
X157135639Y-81775048D01*
X157022743Y-81502493D01*
X156996453Y-81456958D01*
X156875238Y-81247006D01*
X156695647Y-81012959D01*
X156695641Y-81012952D01*
X156487047Y-80804358D01*
X156487040Y-80804352D01*
X156252993Y-80624761D01*
X155997510Y-80477258D01*
X155997500Y-80477254D01*
X155724961Y-80364364D01*
X155724954Y-80364362D01*
X155724952Y-80364361D01*
X155439993Y-80288007D01*
X155391113Y-80281571D01*
X155147513Y-80249500D01*
X155147506Y-80249500D01*
X154852494Y-80249500D01*
X154852486Y-80249500D01*
X154574085Y-80286153D01*
X154560007Y-80288007D01*
X154275048Y-80364361D01*
X154275038Y-80364364D01*
X154002499Y-80477254D01*
X154002489Y-80477258D01*
X153747006Y-80624761D01*
X153512959Y-80804352D01*
X153512952Y-80804358D01*
X153304358Y-81012952D01*
X153304352Y-81012959D01*
X153124761Y-81247006D01*
X152977258Y-81502489D01*
X152977254Y-81502499D01*
X152864364Y-81775038D01*
X152864361Y-81775048D01*
X152828172Y-81910110D01*
X152788008Y-82060004D01*
X152788006Y-82060015D01*
X152749500Y-82352486D01*
X151036165Y-82352486D01*
X151017786Y-82236445D01*
X150963042Y-82067958D01*
X150963042Y-82067957D01*
X150882613Y-81910109D01*
X150871789Y-81895211D01*
X150848309Y-81829405D01*
X150864134Y-81761351D01*
X150914239Y-81712656D01*
X150982717Y-81698780D01*
X150990589Y-81699710D01*
X151058851Y-81709999D01*
X151058857Y-81710000D01*
X151321143Y-81710000D01*
X151321151Y-81709999D01*
X151580499Y-81670909D01*
X151580505Y-81670907D01*
X151831143Y-81593595D01*
X152067445Y-81479798D01*
X152067447Y-81479797D01*
X152239168Y-81362720D01*
X151514025Y-80637578D01*
X151545258Y-80624641D01*
X151668097Y-80542563D01*
X151772563Y-80438097D01*
X151854641Y-80315258D01*
X151867578Y-80284025D01*
X152592125Y-81008572D01*
X152639971Y-80948573D01*
X152771116Y-80721426D01*
X152866941Y-80477270D01*
X152925306Y-80221550D01*
X152925307Y-80221545D01*
X152944907Y-79960004D01*
X152944907Y-79959995D01*
X152925307Y-79698454D01*
X152925306Y-79698449D01*
X152866941Y-79442729D01*
X152771116Y-79198573D01*
X152771117Y-79198573D01*
X152639972Y-78971426D01*
X152592124Y-78911427D01*
X151867577Y-79635973D01*
X151854641Y-79604742D01*
X151772563Y-79481903D01*
X151668097Y-79377437D01*
X151545258Y-79295359D01*
X151514025Y-79282421D01*
X152239168Y-78557278D01*
X152067454Y-78440206D01*
X152067445Y-78440201D01*
X151831142Y-78326404D01*
X151831144Y-78326404D01*
X151580505Y-78249092D01*
X151580499Y-78249090D01*
X151321151Y-78210000D01*
X151058848Y-78210000D01*
X150799500Y-78249090D01*
X150799494Y-78249092D01*
X150548858Y-78326404D01*
X150548854Y-78326405D01*
X150312547Y-78440205D01*
X150312539Y-78440210D01*
X150140830Y-78557277D01*
X150865974Y-79282421D01*
X150834742Y-79295359D01*
X150711903Y-79377437D01*
X150607437Y-79481903D01*
X150525359Y-79604742D01*
X150512422Y-79635974D01*
X149787874Y-78911427D01*
X149740028Y-78971425D01*
X149608883Y-79198573D01*
X149513058Y-79442729D01*
X149454693Y-79698449D01*
X149454692Y-79698454D01*
X149435093Y-79959995D01*
X149435093Y-79960004D01*
X149454692Y-80221545D01*
X149454693Y-80221550D01*
X149513058Y-80477270D01*
X149608883Y-80721426D01*
X149608882Y-80721426D01*
X149740027Y-80948573D01*
X149787874Y-81008571D01*
X150512421Y-80284024D01*
X150525359Y-80315258D01*
X150607437Y-80438097D01*
X150711903Y-80542563D01*
X150834742Y-80624641D01*
X150865974Y-80637578D01*
X150157255Y-81346296D01*
X150095932Y-81379781D01*
X150050179Y-81381088D01*
X150008579Y-81374500D01*
X149831421Y-81374500D01*
X149773095Y-81383738D01*
X149656443Y-81402214D01*
X149487960Y-81456956D01*
X149487957Y-81456957D01*
X149330109Y-81537386D01*
X149252745Y-81593595D01*
X149186786Y-81641517D01*
X149186784Y-81641519D01*
X149186783Y-81641519D01*
X149061519Y-81766783D01*
X149061519Y-81766784D01*
X149061517Y-81766786D01*
X149016796Y-81828338D01*
X148957386Y-81910109D01*
X148876957Y-82067957D01*
X148876956Y-82067960D01*
X148822214Y-82236443D01*
X148794500Y-82411421D01*
X142165500Y-82411421D01*
X142137786Y-82236445D01*
X142083042Y-82067958D01*
X142083042Y-82067957D01*
X142002613Y-81910109D01*
X141991789Y-81895211D01*
X141898483Y-81766786D01*
X141773214Y-81641517D01*
X141629890Y-81537386D01*
X141472042Y-81456957D01*
X141472039Y-81456956D01*
X141303556Y-81402214D01*
X141216067Y-81388357D01*
X141128579Y-81374500D01*
X140951421Y-81374500D01*
X140893095Y-81383738D01*
X140776443Y-81402214D01*
X140607960Y-81456956D01*
X140607957Y-81456957D01*
X140450109Y-81537386D01*
X140372745Y-81593595D01*
X140306786Y-81641517D01*
X140306784Y-81641519D01*
X140306783Y-81641519D01*
X140181519Y-81766783D01*
X140181519Y-81766784D01*
X140181517Y-81766786D01*
X140136796Y-81828338D01*
X140077386Y-81910109D01*
X139996957Y-82067957D01*
X139996956Y-82067960D01*
X139942214Y-82236443D01*
X139914500Y-82411421D01*
X138210500Y-82411421D01*
X138210500Y-82352494D01*
X138171993Y-82060007D01*
X138095639Y-81775048D01*
X137982743Y-81502493D01*
X137956453Y-81456958D01*
X137835238Y-81247006D01*
X137655647Y-81012959D01*
X137655641Y-81012952D01*
X137447047Y-80804358D01*
X137447040Y-80804352D01*
X137212993Y-80624761D01*
X136957510Y-80477258D01*
X136957500Y-80477254D01*
X136684961Y-80364364D01*
X136684954Y-80364362D01*
X136684952Y-80364361D01*
X136399993Y-80288007D01*
X136351113Y-80281571D01*
X136107513Y-80249500D01*
X136107506Y-80249500D01*
X135812494Y-80249500D01*
X135812486Y-80249500D01*
X135534085Y-80286153D01*
X135520007Y-80288007D01*
X135235048Y-80364361D01*
X135235038Y-80364364D01*
X134962499Y-80477254D01*
X134962489Y-80477258D01*
X134707006Y-80624761D01*
X134472959Y-80804352D01*
X134472952Y-80804358D01*
X134264358Y-81012952D01*
X134264352Y-81012959D01*
X134084761Y-81247006D01*
X133937258Y-81502489D01*
X133937254Y-81502499D01*
X133824364Y-81775038D01*
X133824361Y-81775048D01*
X133788172Y-81910110D01*
X133748008Y-82060004D01*
X133748006Y-82060015D01*
X133709500Y-82352486D01*
X131996165Y-82352486D01*
X131977786Y-82236445D01*
X131923042Y-82067958D01*
X131923042Y-82067957D01*
X131842613Y-81910109D01*
X131831789Y-81895211D01*
X131808309Y-81829405D01*
X131824134Y-81761351D01*
X131874239Y-81712656D01*
X131942717Y-81698780D01*
X131950589Y-81699710D01*
X132018851Y-81709999D01*
X132018857Y-81710000D01*
X132281143Y-81710000D01*
X132281151Y-81709999D01*
X132540499Y-81670909D01*
X132540505Y-81670907D01*
X132791143Y-81593595D01*
X133027445Y-81479798D01*
X133027447Y-81479797D01*
X133199168Y-81362720D01*
X132474025Y-80637578D01*
X132505258Y-80624641D01*
X132628097Y-80542563D01*
X132732563Y-80438097D01*
X132814641Y-80315258D01*
X132827578Y-80284025D01*
X133552125Y-81008572D01*
X133599971Y-80948573D01*
X133731116Y-80721426D01*
X133826941Y-80477270D01*
X133885306Y-80221550D01*
X133885307Y-80221545D01*
X133904907Y-79960004D01*
X133904907Y-79959995D01*
X133885307Y-79698454D01*
X133885306Y-79698449D01*
X133826941Y-79442729D01*
X133731116Y-79198573D01*
X133731117Y-79198573D01*
X133599972Y-78971426D01*
X133552124Y-78911427D01*
X132827577Y-79635973D01*
X132814641Y-79604742D01*
X132732563Y-79481903D01*
X132628097Y-79377437D01*
X132505258Y-79295359D01*
X132474025Y-79282421D01*
X133199168Y-78557278D01*
X133027454Y-78440206D01*
X133027445Y-78440201D01*
X132791142Y-78326404D01*
X132791144Y-78326404D01*
X132540505Y-78249092D01*
X132540499Y-78249090D01*
X132281151Y-78210000D01*
X132018848Y-78210000D01*
X131759500Y-78249090D01*
X131759494Y-78249092D01*
X131508858Y-78326404D01*
X131508854Y-78326405D01*
X131272547Y-78440205D01*
X131272539Y-78440210D01*
X131100830Y-78557277D01*
X131825974Y-79282421D01*
X131794742Y-79295359D01*
X131671903Y-79377437D01*
X131567437Y-79481903D01*
X131485359Y-79604742D01*
X131472422Y-79635974D01*
X130747874Y-78911427D01*
X130700028Y-78971425D01*
X130568883Y-79198573D01*
X130473058Y-79442729D01*
X130414693Y-79698449D01*
X130414692Y-79698454D01*
X130395093Y-79959995D01*
X130395093Y-79960004D01*
X130414692Y-80221545D01*
X130414693Y-80221550D01*
X130473058Y-80477270D01*
X130568883Y-80721426D01*
X130568882Y-80721426D01*
X130700027Y-80948573D01*
X130747874Y-81008571D01*
X131472421Y-80284024D01*
X131485359Y-80315258D01*
X131567437Y-80438097D01*
X131671903Y-80542563D01*
X131794742Y-80624641D01*
X131825974Y-80637578D01*
X131117255Y-81346296D01*
X131055932Y-81379781D01*
X131010179Y-81381088D01*
X130968579Y-81374500D01*
X130791421Y-81374500D01*
X130733095Y-81383738D01*
X130616443Y-81402214D01*
X130447960Y-81456956D01*
X130447957Y-81456957D01*
X130290109Y-81537386D01*
X130212745Y-81593595D01*
X130146786Y-81641517D01*
X130146784Y-81641519D01*
X130146783Y-81641519D01*
X130021519Y-81766783D01*
X130021519Y-81766784D01*
X130021517Y-81766786D01*
X129976796Y-81828338D01*
X129917386Y-81910109D01*
X129836957Y-82067957D01*
X129836956Y-82067960D01*
X129782214Y-82236443D01*
X129754500Y-82411421D01*
X123125500Y-82411421D01*
X123097786Y-82236445D01*
X123043042Y-82067958D01*
X123043042Y-82067957D01*
X122962613Y-81910109D01*
X122951789Y-81895211D01*
X122858483Y-81766786D01*
X122733214Y-81641517D01*
X122589890Y-81537386D01*
X122432042Y-81456957D01*
X122432039Y-81456956D01*
X122263556Y-81402214D01*
X122176067Y-81388357D01*
X122088579Y-81374500D01*
X121911421Y-81374500D01*
X121853095Y-81383738D01*
X121736443Y-81402214D01*
X121567960Y-81456956D01*
X121567957Y-81456957D01*
X121410109Y-81537386D01*
X121332745Y-81593595D01*
X121266786Y-81641517D01*
X121266784Y-81641519D01*
X121266783Y-81641519D01*
X121141519Y-81766783D01*
X121141519Y-81766784D01*
X121141517Y-81766786D01*
X121096796Y-81828338D01*
X121037386Y-81910109D01*
X120956957Y-82067957D01*
X120956956Y-82067960D01*
X120902214Y-82236443D01*
X120874500Y-82411421D01*
X119170500Y-82411421D01*
X119170500Y-82352494D01*
X119131993Y-82060007D01*
X119055639Y-81775048D01*
X118942743Y-81502493D01*
X118916453Y-81456958D01*
X118795238Y-81247006D01*
X118615647Y-81012959D01*
X118615641Y-81012952D01*
X118407047Y-80804358D01*
X118407040Y-80804352D01*
X118172993Y-80624761D01*
X117917510Y-80477258D01*
X117917500Y-80477254D01*
X117644961Y-80364364D01*
X117644954Y-80364362D01*
X117644952Y-80364361D01*
X117359993Y-80288007D01*
X117311113Y-80281571D01*
X117067513Y-80249500D01*
X117067506Y-80249500D01*
X116772494Y-80249500D01*
X116772486Y-80249500D01*
X116494085Y-80286153D01*
X116480007Y-80288007D01*
X116195048Y-80364361D01*
X116195038Y-80364364D01*
X115922499Y-80477254D01*
X115922489Y-80477258D01*
X115667006Y-80624761D01*
X115432959Y-80804352D01*
X115432952Y-80804358D01*
X115224358Y-81012952D01*
X115224352Y-81012959D01*
X115044761Y-81247006D01*
X114897258Y-81502489D01*
X114897254Y-81502499D01*
X114784364Y-81775038D01*
X114784361Y-81775048D01*
X114748172Y-81910110D01*
X114708008Y-82060004D01*
X114708006Y-82060015D01*
X114669500Y-82352486D01*
X112956165Y-82352486D01*
X112937786Y-82236445D01*
X112883042Y-82067958D01*
X112883042Y-82067957D01*
X112802613Y-81910109D01*
X112791789Y-81895211D01*
X112768309Y-81829405D01*
X112784134Y-81761351D01*
X112834239Y-81712656D01*
X112902717Y-81698780D01*
X112910589Y-81699710D01*
X112978851Y-81709999D01*
X112978857Y-81710000D01*
X113241143Y-81710000D01*
X113241151Y-81709999D01*
X113500499Y-81670909D01*
X113500505Y-81670907D01*
X113751143Y-81593595D01*
X113987445Y-81479798D01*
X113987447Y-81479797D01*
X114159168Y-81362720D01*
X113434025Y-80637578D01*
X113465258Y-80624641D01*
X113588097Y-80542563D01*
X113692563Y-80438097D01*
X113774641Y-80315258D01*
X113787578Y-80284025D01*
X114512125Y-81008572D01*
X114559971Y-80948573D01*
X114691116Y-80721426D01*
X114786941Y-80477270D01*
X114845306Y-80221550D01*
X114845307Y-80221545D01*
X114864907Y-79960004D01*
X114864907Y-79959995D01*
X114845307Y-79698454D01*
X114845306Y-79698449D01*
X114786941Y-79442729D01*
X114691116Y-79198573D01*
X114691117Y-79198573D01*
X114559972Y-78971426D01*
X114512124Y-78911427D01*
X113787577Y-79635973D01*
X113774641Y-79604742D01*
X113692563Y-79481903D01*
X113588097Y-79377437D01*
X113465258Y-79295359D01*
X113434025Y-79282421D01*
X114159168Y-78557278D01*
X113987454Y-78440206D01*
X113987445Y-78440201D01*
X113751142Y-78326404D01*
X113751144Y-78326404D01*
X113500505Y-78249092D01*
X113500499Y-78249090D01*
X113241151Y-78210000D01*
X112978848Y-78210000D01*
X112719500Y-78249090D01*
X112719494Y-78249092D01*
X112468858Y-78326404D01*
X112468854Y-78326405D01*
X112232547Y-78440205D01*
X112232539Y-78440210D01*
X112060830Y-78557277D01*
X112785974Y-79282421D01*
X112754742Y-79295359D01*
X112631903Y-79377437D01*
X112527437Y-79481903D01*
X112445359Y-79604742D01*
X112432422Y-79635974D01*
X111707874Y-78911427D01*
X111660028Y-78971425D01*
X111528883Y-79198573D01*
X111433058Y-79442729D01*
X111374693Y-79698449D01*
X111374692Y-79698454D01*
X111355093Y-79959995D01*
X111355093Y-79960004D01*
X111374692Y-80221545D01*
X111374693Y-80221550D01*
X111433058Y-80477270D01*
X111528883Y-80721426D01*
X111528882Y-80721426D01*
X111660027Y-80948573D01*
X111707874Y-81008571D01*
X112432421Y-80284024D01*
X112445359Y-80315258D01*
X112527437Y-80438097D01*
X112631903Y-80542563D01*
X112754742Y-80624641D01*
X112785974Y-80637578D01*
X112077255Y-81346296D01*
X112015932Y-81379781D01*
X111970179Y-81381088D01*
X111928579Y-81374500D01*
X111751421Y-81374500D01*
X111693095Y-81383738D01*
X111576443Y-81402214D01*
X111407960Y-81456956D01*
X111407957Y-81456957D01*
X111250109Y-81537386D01*
X111172745Y-81593595D01*
X111106786Y-81641517D01*
X111106784Y-81641519D01*
X111106783Y-81641519D01*
X110981519Y-81766783D01*
X110981519Y-81766784D01*
X110981517Y-81766786D01*
X110936796Y-81828338D01*
X110877386Y-81910109D01*
X110796957Y-82067957D01*
X110796956Y-82067960D01*
X110742214Y-82236443D01*
X110714500Y-82411421D01*
X106000000Y-82411421D01*
X106000000Y-74759997D01*
X106732677Y-74759997D01*
X106732677Y-74760000D01*
X106737028Y-74809732D01*
X106737500Y-74820540D01*
X106737500Y-75054541D01*
X106740412Y-75091546D01*
X106740413Y-75091552D01*
X106786434Y-75249954D01*
X106786435Y-75249957D01*
X106870405Y-75391943D01*
X106870406Y-75391944D01*
X106870408Y-75391947D01*
X106965669Y-75487208D01*
X106979558Y-75503761D01*
X107029170Y-75574615D01*
X107029175Y-75574621D01*
X107185378Y-75730824D01*
X107185384Y-75730829D01*
X107366333Y-75857531D01*
X107366335Y-75857532D01*
X107366338Y-75857534D01*
X107566550Y-75950894D01*
X107779932Y-76008070D01*
X107930252Y-76021221D01*
X107999998Y-76027323D01*
X108000000Y-76027323D01*
X108000002Y-76027323D01*
X108055017Y-76022509D01*
X108220068Y-76008070D01*
X108433450Y-75950894D01*
X108633662Y-75857534D01*
X108814620Y-75730826D01*
X108970826Y-75574620D01*
X109020443Y-75503756D01*
X109034327Y-75487210D01*
X109129592Y-75391947D01*
X109163268Y-75335003D01*
X109214337Y-75287321D01*
X109283079Y-75274817D01*
X109347668Y-75301462D01*
X109376732Y-75335004D01*
X109410405Y-75391943D01*
X109410408Y-75391947D01*
X109505669Y-75487208D01*
X109519558Y-75503761D01*
X109569170Y-75574615D01*
X109569175Y-75574621D01*
X109725378Y-75730824D01*
X109725384Y-75730829D01*
X109906333Y-75857531D01*
X109906335Y-75857532D01*
X109906338Y-75857534D01*
X110106550Y-75950894D01*
X110319932Y-76008070D01*
X110470252Y-76021221D01*
X110539998Y-76027323D01*
X110540000Y-76027323D01*
X110540002Y-76027323D01*
X110595017Y-76022509D01*
X110760068Y-76008070D01*
X110973450Y-75950894D01*
X111173662Y-75857534D01*
X111354620Y-75730826D01*
X111510826Y-75574620D01*
X111560443Y-75503756D01*
X111574327Y-75487210D01*
X111669592Y-75391947D01*
X111703268Y-75335003D01*
X111754337Y-75287321D01*
X111823079Y-75274817D01*
X111887668Y-75301462D01*
X111916732Y-75335004D01*
X111950405Y-75391943D01*
X111950408Y-75391947D01*
X112045669Y-75487208D01*
X112059558Y-75503761D01*
X112109170Y-75574615D01*
X112109175Y-75574621D01*
X112265378Y-75730824D01*
X112265384Y-75730829D01*
X112446333Y-75857531D01*
X112446335Y-75857532D01*
X112446338Y-75857534D01*
X112646550Y-75950894D01*
X112859932Y-76008070D01*
X113010252Y-76021221D01*
X113079998Y-76027323D01*
X113080000Y-76027323D01*
X113080002Y-76027323D01*
X113135017Y-76022509D01*
X113300068Y-76008070D01*
X113513450Y-75950894D01*
X113713662Y-75857534D01*
X113894620Y-75730826D01*
X114050826Y-75574620D01*
X114100443Y-75503756D01*
X114114327Y-75487210D01*
X114209592Y-75391947D01*
X114243268Y-75335003D01*
X114294337Y-75287321D01*
X114363079Y-75274817D01*
X114427668Y-75301462D01*
X114456732Y-75335004D01*
X114490405Y-75391943D01*
X114490408Y-75391947D01*
X114585669Y-75487208D01*
X114599558Y-75503761D01*
X114649170Y-75574615D01*
X114649175Y-75574621D01*
X114805378Y-75730824D01*
X114805384Y-75730829D01*
X114986333Y-75857531D01*
X114986335Y-75857532D01*
X114986338Y-75857534D01*
X115186550Y-75950894D01*
X115399932Y-76008070D01*
X115550252Y-76021221D01*
X115619998Y-76027323D01*
X115620000Y-76027323D01*
X115620002Y-76027323D01*
X115675017Y-76022509D01*
X115840068Y-76008070D01*
X116053450Y-75950894D01*
X116253662Y-75857534D01*
X116434620Y-75730826D01*
X116590826Y-75574620D01*
X116640443Y-75503756D01*
X116654327Y-75487210D01*
X116749592Y-75391947D01*
X116783268Y-75335003D01*
X116834337Y-75287321D01*
X116903079Y-75274817D01*
X116967668Y-75301462D01*
X116996732Y-75335004D01*
X117030405Y-75391943D01*
X117030408Y-75391947D01*
X117125669Y-75487208D01*
X117139558Y-75503761D01*
X117189170Y-75574615D01*
X117189175Y-75574621D01*
X117345378Y-75730824D01*
X117345384Y-75730829D01*
X117526333Y-75857531D01*
X117526335Y-75857532D01*
X117526338Y-75857534D01*
X117726550Y-75950894D01*
X117939932Y-76008070D01*
X118090253Y-76021221D01*
X118155322Y-76046673D01*
X118196301Y-76103264D01*
X118200179Y-76173026D01*
X118174600Y-76221205D01*
X118176088Y-76222392D01*
X118173200Y-76226014D01*
X118173195Y-76226019D01*
X118009614Y-76431143D01*
X117878432Y-76658356D01*
X117782582Y-76902578D01*
X117782576Y-76902597D01*
X117724197Y-77158374D01*
X117724196Y-77158379D01*
X117704592Y-77419995D01*
X117704592Y-77420004D01*
X117724196Y-77681620D01*
X117724197Y-77681625D01*
X117782576Y-77937402D01*
X117782578Y-77937411D01*
X117782580Y-77937416D01*
X117878432Y-78181643D01*
X118009614Y-78408857D01*
X118127975Y-78557277D01*
X118173198Y-78613985D01*
X118354753Y-78782441D01*
X118365521Y-78792433D01*
X118582296Y-78940228D01*
X118582301Y-78940230D01*
X118582302Y-78940231D01*
X118582303Y-78940232D01*
X118647077Y-78971425D01*
X118818673Y-79054061D01*
X118818674Y-79054061D01*
X118818677Y-79054063D01*
X119069385Y-79131396D01*
X119328818Y-79170500D01*
X119591182Y-79170500D01*
X119850615Y-79131396D01*
X120101323Y-79054063D01*
X120337704Y-78940228D01*
X120554479Y-78792433D01*
X120746805Y-78613981D01*
X120910386Y-78408857D01*
X121041568Y-78181643D01*
X121137420Y-77937416D01*
X121195802Y-77681630D01*
X121215408Y-77420000D01*
X121215408Y-77419995D01*
X136744592Y-77419995D01*
X136744592Y-77420004D01*
X136764196Y-77681620D01*
X136764197Y-77681625D01*
X136822576Y-77937402D01*
X136822578Y-77937411D01*
X136822580Y-77937416D01*
X136918432Y-78181643D01*
X137049614Y-78408857D01*
X137167975Y-78557277D01*
X137213198Y-78613985D01*
X137394753Y-78782441D01*
X137405521Y-78792433D01*
X137622296Y-78940228D01*
X137622301Y-78940230D01*
X137622302Y-78940231D01*
X137622303Y-78940232D01*
X137687077Y-78971425D01*
X137858673Y-79054061D01*
X137858674Y-79054061D01*
X137858677Y-79054063D01*
X138109385Y-79131396D01*
X138368818Y-79170500D01*
X138631182Y-79170500D01*
X138890615Y-79131396D01*
X139141323Y-79054063D01*
X139377704Y-78940228D01*
X139594479Y-78792433D01*
X139786805Y-78613981D01*
X139950386Y-78408857D01*
X140081568Y-78181643D01*
X140177420Y-77937416D01*
X140235802Y-77681630D01*
X140255408Y-77420000D01*
X140255408Y-77419995D01*
X155784592Y-77419995D01*
X155784592Y-77420004D01*
X155804196Y-77681620D01*
X155804197Y-77681625D01*
X155862576Y-77937402D01*
X155862578Y-77937411D01*
X155862580Y-77937416D01*
X155958432Y-78181643D01*
X156089614Y-78408857D01*
X156207975Y-78557277D01*
X156253198Y-78613985D01*
X156434753Y-78782441D01*
X156445521Y-78792433D01*
X156662296Y-78940228D01*
X156662301Y-78940230D01*
X156662302Y-78940231D01*
X156662303Y-78940232D01*
X156727077Y-78971425D01*
X156898673Y-79054061D01*
X156898674Y-79054061D01*
X156898677Y-79054063D01*
X157149385Y-79131396D01*
X157408818Y-79170500D01*
X157671182Y-79170500D01*
X157930615Y-79131396D01*
X158181323Y-79054063D01*
X158417704Y-78940228D01*
X158634479Y-78792433D01*
X158826805Y-78613981D01*
X158990386Y-78408857D01*
X159121568Y-78181643D01*
X159217420Y-77937416D01*
X159275802Y-77681630D01*
X159295408Y-77420000D01*
X159295408Y-77419995D01*
X174824592Y-77419995D01*
X174824592Y-77420004D01*
X174844196Y-77681620D01*
X174844197Y-77681625D01*
X174902576Y-77937402D01*
X174902578Y-77937411D01*
X174902580Y-77937416D01*
X174998432Y-78181643D01*
X175129614Y-78408857D01*
X175247975Y-78557277D01*
X175293198Y-78613985D01*
X175474753Y-78782441D01*
X175485521Y-78792433D01*
X175702296Y-78940228D01*
X175702301Y-78940230D01*
X175702302Y-78940231D01*
X175702303Y-78940232D01*
X175767077Y-78971425D01*
X175938673Y-79054061D01*
X175938674Y-79054061D01*
X175938677Y-79054063D01*
X176189385Y-79131396D01*
X176448818Y-79170500D01*
X176711182Y-79170500D01*
X176970615Y-79131396D01*
X177221323Y-79054063D01*
X177457704Y-78940228D01*
X177674479Y-78792433D01*
X177866805Y-78613981D01*
X178030386Y-78408857D01*
X178161568Y-78181643D01*
X178257420Y-77937416D01*
X178315802Y-77681630D01*
X178335408Y-77420000D01*
X178335408Y-77419995D01*
X193864592Y-77419995D01*
X193864592Y-77420004D01*
X193884196Y-77681620D01*
X193884197Y-77681625D01*
X193942576Y-77937402D01*
X193942578Y-77937411D01*
X193942580Y-77937416D01*
X194038432Y-78181643D01*
X194169614Y-78408857D01*
X194287975Y-78557277D01*
X194333198Y-78613985D01*
X194514753Y-78782441D01*
X194525521Y-78792433D01*
X194742296Y-78940228D01*
X194742301Y-78940230D01*
X194742302Y-78940231D01*
X194742303Y-78940232D01*
X194807077Y-78971425D01*
X194978673Y-79054061D01*
X194978674Y-79054061D01*
X194978677Y-79054063D01*
X195229385Y-79131396D01*
X195488818Y-79170500D01*
X195751182Y-79170500D01*
X196010615Y-79131396D01*
X196261323Y-79054063D01*
X196497704Y-78940228D01*
X196714479Y-78792433D01*
X196906805Y-78613981D01*
X197070386Y-78408857D01*
X197201568Y-78181643D01*
X197297420Y-77937416D01*
X197355802Y-77681630D01*
X197375408Y-77420000D01*
X197355802Y-77158370D01*
X197297420Y-76902584D01*
X197201568Y-76658357D01*
X197070386Y-76431143D01*
X196906805Y-76226019D01*
X196906804Y-76226018D01*
X196906801Y-76226014D01*
X196714479Y-76047567D01*
X196700316Y-76037911D01*
X196497704Y-75899772D01*
X196497700Y-75899770D01*
X196497697Y-75899768D01*
X196497696Y-75899767D01*
X196261325Y-75785938D01*
X196261327Y-75785938D01*
X196010623Y-75708606D01*
X196010619Y-75708605D01*
X196010615Y-75708604D01*
X195885823Y-75689794D01*
X195751187Y-75669500D01*
X195751182Y-75669500D01*
X195488818Y-75669500D01*
X195488812Y-75669500D01*
X195327247Y-75693853D01*
X195229385Y-75708604D01*
X195229382Y-75708605D01*
X195229376Y-75708606D01*
X194978673Y-75785938D01*
X194742303Y-75899767D01*
X194742302Y-75899768D01*
X194525520Y-76047567D01*
X194333198Y-76226014D01*
X194169614Y-76431143D01*
X194038432Y-76658356D01*
X193942582Y-76902578D01*
X193942576Y-76902597D01*
X193884197Y-77158374D01*
X193884196Y-77158379D01*
X193864592Y-77419995D01*
X178335408Y-77419995D01*
X178315802Y-77158370D01*
X178257420Y-76902584D01*
X178161568Y-76658357D01*
X178030386Y-76431143D01*
X177866805Y-76226019D01*
X177866804Y-76226018D01*
X177866801Y-76226014D01*
X177674479Y-76047567D01*
X177660316Y-76037911D01*
X177457704Y-75899772D01*
X177457700Y-75899770D01*
X177457697Y-75899768D01*
X177457696Y-75899767D01*
X177221325Y-75785938D01*
X177221327Y-75785938D01*
X176970623Y-75708606D01*
X176970619Y-75708605D01*
X176970615Y-75708604D01*
X176845823Y-75689794D01*
X176711187Y-75669500D01*
X176711182Y-75669500D01*
X176448818Y-75669500D01*
X176448812Y-75669500D01*
X176287247Y-75693853D01*
X176189385Y-75708604D01*
X176189382Y-75708605D01*
X176189376Y-75708606D01*
X175938673Y-75785938D01*
X175702303Y-75899767D01*
X175702302Y-75899768D01*
X175485520Y-76047567D01*
X175293198Y-76226014D01*
X175129614Y-76431143D01*
X174998432Y-76658356D01*
X174902582Y-76902578D01*
X174902576Y-76902597D01*
X174844197Y-77158374D01*
X174844196Y-77158379D01*
X174824592Y-77419995D01*
X159295408Y-77419995D01*
X159275802Y-77158370D01*
X159217420Y-76902584D01*
X159121568Y-76658357D01*
X158990386Y-76431143D01*
X158826805Y-76226019D01*
X158826804Y-76226018D01*
X158826801Y-76226014D01*
X158634479Y-76047567D01*
X158620316Y-76037911D01*
X158417704Y-75899772D01*
X158417700Y-75899770D01*
X158417697Y-75899768D01*
X158417696Y-75899767D01*
X158181325Y-75785938D01*
X158181327Y-75785938D01*
X157930623Y-75708606D01*
X157930619Y-75708605D01*
X157930615Y-75708604D01*
X157805823Y-75689794D01*
X157671187Y-75669500D01*
X157671182Y-75669500D01*
X157408818Y-75669500D01*
X157408812Y-75669500D01*
X157247247Y-75693853D01*
X157149385Y-75708604D01*
X157149382Y-75708605D01*
X157149376Y-75708606D01*
X156898673Y-75785938D01*
X156662303Y-75899767D01*
X156662302Y-75899768D01*
X156445520Y-76047567D01*
X156253198Y-76226014D01*
X156089614Y-76431143D01*
X155958432Y-76658356D01*
X155862582Y-76902578D01*
X155862576Y-76902597D01*
X155804197Y-77158374D01*
X155804196Y-77158379D01*
X155784592Y-77419995D01*
X140255408Y-77419995D01*
X140235802Y-77158370D01*
X140177420Y-76902584D01*
X140081568Y-76658357D01*
X139950386Y-76431143D01*
X139786805Y-76226019D01*
X139786804Y-76226018D01*
X139786801Y-76226014D01*
X139594479Y-76047567D01*
X139580316Y-76037911D01*
X139377704Y-75899772D01*
X139377700Y-75899770D01*
X139377697Y-75899768D01*
X139377696Y-75899767D01*
X139141325Y-75785938D01*
X139141327Y-75785938D01*
X138890623Y-75708606D01*
X138890619Y-75708605D01*
X138890615Y-75708604D01*
X138765823Y-75689794D01*
X138631187Y-75669500D01*
X138631182Y-75669500D01*
X138368818Y-75669500D01*
X138368812Y-75669500D01*
X138207247Y-75693853D01*
X138109385Y-75708604D01*
X138109382Y-75708605D01*
X138109376Y-75708606D01*
X137858673Y-75785938D01*
X137622303Y-75899767D01*
X137622302Y-75899768D01*
X137405520Y-76047567D01*
X137213198Y-76226014D01*
X137049614Y-76431143D01*
X136918432Y-76658356D01*
X136822582Y-76902578D01*
X136822576Y-76902597D01*
X136764197Y-77158374D01*
X136764196Y-77158379D01*
X136744592Y-77419995D01*
X121215408Y-77419995D01*
X121195802Y-77158370D01*
X121137420Y-76902584D01*
X121041568Y-76658357D01*
X120910386Y-76431143D01*
X120746805Y-76226019D01*
X120746803Y-76226017D01*
X120746799Y-76226012D01*
X120745142Y-76224226D01*
X120744754Y-76223448D01*
X120743912Y-76222392D01*
X120744138Y-76222211D01*
X120713980Y-76161691D01*
X120721574Y-76092235D01*
X120765513Y-76037911D01*
X120825242Y-76016366D01*
X120920068Y-76008070D01*
X121133450Y-75950894D01*
X121333662Y-75857534D01*
X121514620Y-75730826D01*
X121670826Y-75574620D01*
X121720443Y-75503756D01*
X121734327Y-75487210D01*
X121829592Y-75391947D01*
X121863268Y-75335003D01*
X121914337Y-75287321D01*
X121983079Y-75274817D01*
X122047668Y-75301462D01*
X122076732Y-75335004D01*
X122110405Y-75391943D01*
X122110408Y-75391947D01*
X122205669Y-75487208D01*
X122219558Y-75503761D01*
X122269170Y-75574615D01*
X122269175Y-75574621D01*
X122425378Y-75730824D01*
X122425384Y-75730829D01*
X122606333Y-75857531D01*
X122606335Y-75857532D01*
X122606338Y-75857534D01*
X122806550Y-75950894D01*
X123019932Y-76008070D01*
X123170252Y-76021221D01*
X123239998Y-76027323D01*
X123240000Y-76027323D01*
X123240002Y-76027323D01*
X123295017Y-76022509D01*
X123460068Y-76008070D01*
X123673450Y-75950894D01*
X123873662Y-75857534D01*
X124054620Y-75730826D01*
X124210826Y-75574620D01*
X124260443Y-75503756D01*
X124274327Y-75487210D01*
X124369592Y-75391947D01*
X124453564Y-75249959D01*
X124499587Y-75091548D01*
X124502500Y-75054534D01*
X124502500Y-74820540D01*
X124502972Y-74809732D01*
X124507323Y-74760000D01*
X124507323Y-74759997D01*
X124502972Y-74710265D01*
X124502500Y-74699458D01*
X124502500Y-72795473D01*
X124502499Y-72795458D01*
X124499587Y-72758453D01*
X124499586Y-72758447D01*
X124453565Y-72600045D01*
X124453564Y-72600042D01*
X124453564Y-72600041D01*
X124369592Y-72458053D01*
X124369590Y-72458051D01*
X124369587Y-72458047D01*
X124252952Y-72341412D01*
X124252943Y-72341405D01*
X124110957Y-72257435D01*
X124110954Y-72257434D01*
X123952552Y-72211413D01*
X123952546Y-72211412D01*
X123915541Y-72208500D01*
X123915534Y-72208500D01*
X122564466Y-72208500D01*
X122564458Y-72208500D01*
X122527453Y-72211412D01*
X122527447Y-72211413D01*
X122369045Y-72257434D01*
X122369042Y-72257435D01*
X122227056Y-72341405D01*
X122227047Y-72341412D01*
X122110412Y-72458047D01*
X122110408Y-72458053D01*
X122076732Y-72514996D01*
X122025662Y-72562679D01*
X121956921Y-72575182D01*
X121892331Y-72548536D01*
X121863268Y-72514996D01*
X121829592Y-72458053D01*
X121829589Y-72458050D01*
X121829587Y-72458047D01*
X121712952Y-72341412D01*
X121712943Y-72341405D01*
X121570957Y-72257435D01*
X121570954Y-72257434D01*
X121412552Y-72211413D01*
X121412546Y-72211412D01*
X121375541Y-72208500D01*
X121375534Y-72208500D01*
X120024466Y-72208500D01*
X120024458Y-72208500D01*
X119987453Y-72211412D01*
X119987447Y-72211413D01*
X119829045Y-72257434D01*
X119829042Y-72257435D01*
X119687056Y-72341405D01*
X119687047Y-72341412D01*
X119570412Y-72458047D01*
X119570408Y-72458053D01*
X119536732Y-72514996D01*
X119485662Y-72562679D01*
X119416921Y-72575182D01*
X119352331Y-72548536D01*
X119323268Y-72514996D01*
X119289592Y-72458053D01*
X119289589Y-72458050D01*
X119289587Y-72458047D01*
X119172952Y-72341412D01*
X119172943Y-72341405D01*
X119030957Y-72257435D01*
X119030954Y-72257434D01*
X118872552Y-72211413D01*
X118872546Y-72211412D01*
X118835541Y-72208500D01*
X118835534Y-72208500D01*
X117484466Y-72208500D01*
X117484458Y-72208500D01*
X117447453Y-72211412D01*
X117447447Y-72211413D01*
X117289045Y-72257434D01*
X117289042Y-72257435D01*
X117147056Y-72341405D01*
X117147047Y-72341412D01*
X117030412Y-72458047D01*
X117030408Y-72458053D01*
X116996732Y-72514996D01*
X116945662Y-72562679D01*
X116876921Y-72575182D01*
X116812331Y-72548536D01*
X116783268Y-72514996D01*
X116749592Y-72458053D01*
X116749589Y-72458050D01*
X116749587Y-72458047D01*
X116632952Y-72341412D01*
X116632943Y-72341405D01*
X116490957Y-72257435D01*
X116490954Y-72257434D01*
X116332552Y-72211413D01*
X116332546Y-72211412D01*
X116295541Y-72208500D01*
X116295534Y-72208500D01*
X114944466Y-72208500D01*
X114944458Y-72208500D01*
X114907453Y-72211412D01*
X114907447Y-72211413D01*
X114749045Y-72257434D01*
X114749042Y-72257435D01*
X114607056Y-72341405D01*
X114607047Y-72341412D01*
X114490412Y-72458047D01*
X114490408Y-72458053D01*
X114456732Y-72514996D01*
X114405662Y-72562679D01*
X114336921Y-72575182D01*
X114272331Y-72548536D01*
X114243268Y-72514996D01*
X114209592Y-72458053D01*
X114209589Y-72458050D01*
X114209587Y-72458047D01*
X114092952Y-72341412D01*
X114092943Y-72341405D01*
X113950957Y-72257435D01*
X113950954Y-72257434D01*
X113792552Y-72211413D01*
X113792546Y-72211412D01*
X113755541Y-72208500D01*
X113755534Y-72208500D01*
X112404466Y-72208500D01*
X112404458Y-72208500D01*
X112367453Y-72211412D01*
X112367447Y-72211413D01*
X112209045Y-72257434D01*
X112209042Y-72257435D01*
X112067056Y-72341405D01*
X112067047Y-72341412D01*
X111950412Y-72458047D01*
X111950408Y-72458053D01*
X111916732Y-72514996D01*
X111865662Y-72562679D01*
X111796921Y-72575182D01*
X111732331Y-72548536D01*
X111703268Y-72514996D01*
X111669592Y-72458053D01*
X111669589Y-72458050D01*
X111669587Y-72458047D01*
X111552952Y-72341412D01*
X111552943Y-72341405D01*
X111410957Y-72257435D01*
X111410954Y-72257434D01*
X111252552Y-72211413D01*
X111252546Y-72211412D01*
X111215541Y-72208500D01*
X111215534Y-72208500D01*
X109864466Y-72208500D01*
X109864458Y-72208500D01*
X109827453Y-72211412D01*
X109827447Y-72211413D01*
X109669045Y-72257434D01*
X109669042Y-72257435D01*
X109527056Y-72341405D01*
X109527047Y-72341412D01*
X109410412Y-72458047D01*
X109410408Y-72458053D01*
X109376732Y-72514996D01*
X109325662Y-72562679D01*
X109256921Y-72575182D01*
X109192331Y-72548536D01*
X109163268Y-72514996D01*
X109129592Y-72458053D01*
X109129589Y-72458050D01*
X109129587Y-72458047D01*
X109012952Y-72341412D01*
X109012943Y-72341405D01*
X108870957Y-72257435D01*
X108870954Y-72257434D01*
X108712552Y-72211413D01*
X108712546Y-72211412D01*
X108675541Y-72208500D01*
X108675534Y-72208500D01*
X107324466Y-72208500D01*
X107324458Y-72208500D01*
X107287453Y-72211412D01*
X107287447Y-72211413D01*
X107129045Y-72257434D01*
X107129042Y-72257435D01*
X106987056Y-72341405D01*
X106987047Y-72341412D01*
X106870412Y-72458047D01*
X106870405Y-72458056D01*
X106786435Y-72600042D01*
X106786434Y-72600045D01*
X106740413Y-72758447D01*
X106740412Y-72758453D01*
X106737500Y-72795458D01*
X106737500Y-74699458D01*
X106737028Y-74710265D01*
X106732677Y-74759997D01*
X106000000Y-74759997D01*
X106000000Y-70624000D01*
X106019685Y-70556961D01*
X106072489Y-70511206D01*
X106124000Y-70500000D01*
X204376000Y-70500000D01*
X204443039Y-70519685D01*
G37*
%TD.AperFunction*%
%TD*%
M02*
