%TF.GenerationSoftware,KiCad,Pcbnew,8.0.5*%
%TF.CreationDate,2024-10-28T21:30:14-07:00*%
%TF.ProjectId,PRISM Macro Pad,50524953-4d20-44d6-9163-726f20506164,rev?*%
%TF.SameCoordinates,Original*%
%TF.FileFunction,Copper,L1,Top*%
%TF.FilePolarity,Positive*%
%FSLAX46Y46*%
G04 Gerber Fmt 4.6, Leading zero omitted, Abs format (unit mm)*
G04 Created by KiCad (PCBNEW 8.0.5) date 2024-10-28 21:30:14*
%MOMM*%
%LPD*%
G01*
G04 APERTURE LIST*
%TA.AperFunction,ComponentPad*%
%ADD10C,1.524000*%
%TD*%
%TA.AperFunction,ComponentPad*%
%ADD11C,2.500000*%
%TD*%
%TA.AperFunction,Conductor*%
%ADD12C,0.200000*%
%TD*%
G04 APERTURE END LIST*
D10*
%TO.P,U1,1,PA02_A0_D0*%
%TO.N,unconnected-(U1-PA02_A0_D0-Pad1)*%
X108000000Y-74760000D03*
%TO.P,U1,2,PA4_A1_D1*%
%TO.N,unconnected-(U1-PA4_A1_D1-Pad2)*%
X110540000Y-74760000D03*
%TO.P,U1,3,PA10_A2_D2*%
%TO.N,Net-(U1-PA10_A2_D2)*%
X113080000Y-74760000D03*
%TO.P,U1,4,PA11_A3_D3*%
%TO.N,Net-(U1-PA11_A3_D3)*%
X115620000Y-74760000D03*
%TO.P,U1,5,PA8_A4_D4_SDA*%
%TO.N,Net-(U1-PA8_A4_D4_SDA)*%
X118160000Y-74760000D03*
%TO.P,U1,6,PA9_A5_D5_SCL*%
%TO.N,Net-(U1-PA9_A5_D5_SCL)*%
X120700000Y-74760000D03*
%TO.P,U1,7,PB08_A6_D6_TX*%
%TO.N,Net-(U1-PB08_A6_D6_TX)*%
X123240000Y-74760000D03*
%TO.P,U1,8,PB09_A7_D7_RX*%
%TO.N,unconnected-(U1-PB09_A7_D7_RX-Pad8)*%
X123240000Y-90000000D03*
%TO.P,U1,9,PA7_A8_D8_SCK*%
%TO.N,unconnected-(U1-PA7_A8_D8_SCK-Pad9)*%
X120700000Y-90000000D03*
%TO.P,U1,10,PA5_A9_D9_MISO*%
%TO.N,unconnected-(U1-PA5_A9_D9_MISO-Pad10)*%
X118160000Y-90000000D03*
%TO.P,U1,11,PA6_A10_D10_MOSI*%
%TO.N,unconnected-(U1-PA6_A10_D10_MOSI-Pad11)*%
X115620000Y-90000000D03*
%TO.P,U1,12,3V3*%
%TO.N,Net-(U1-3V3)*%
X113080000Y-90000000D03*
%TO.P,U1,13,GND*%
%TO.N,unconnected-(U1-GND-Pad13)*%
X110540000Y-90000000D03*
%TO.P,U1,14,5V*%
%TO.N,unconnected-(U1-5V-Pad14)*%
X108000000Y-90000000D03*
%TD*%
D11*
%TO.P,A,2*%
%TO.N,Net-(U1-PB08_A6_D6_TX)*%
X119460000Y-77420000D03*
%TO.P,A,1*%
%TO.N,Net-(U1-3V3)*%
X113110000Y-79960000D03*
%TD*%
%TO.P,I,1*%
%TO.N,Net-(U1-3V3)*%
X132150000Y-79960000D03*
%TO.P,I,2*%
%TO.N,Net-(U1-PA9_A5_D5_SCL)*%
X138500000Y-77420000D03*
%TD*%
%TO.P,H,2*%
%TO.N,Net-(U1-PA8_A4_D4_SDA)*%
X157540000Y-77420000D03*
%TO.P,H,1*%
%TO.N,Net-(U1-3V3)*%
X151190000Y-79960000D03*
%TD*%
%TO.P,D,1*%
%TO.N,Net-(U1-3V3)*%
X170230000Y-79960000D03*
%TO.P,D,2*%
%TO.N,Net-(U1-PA11_A3_D3)*%
X176580000Y-77420000D03*
%TD*%
%TO.P,L,2*%
%TO.N,Net-(U1-PA10_A2_D2)*%
X195620000Y-77420000D03*
%TO.P,L,1*%
%TO.N,Net-(U1-3V3)*%
X189270000Y-79960000D03*
%TD*%
D12*
%TO.N,unconnected-(U1-PA02_A0_D0-Pad1)*%
X108000000Y-72000000D02*
X108500000Y-71500000D01*
X108000000Y-74760000D02*
X108000000Y-72000000D01*
%TO.N,unconnected-(U1-PB09_A7_D7_RX-Pad8)*%
X123240000Y-93260000D02*
X123000000Y-93500000D01*
X123240000Y-90000000D02*
X123240000Y-93260000D01*
%TO.N,unconnected-(U1-PA7_A8_D8_SCK-Pad9)*%
X120700000Y-93300000D02*
X120500000Y-93500000D01*
X120700000Y-90000000D02*
X120700000Y-93300000D01*
%TO.N,unconnected-(U1-PA5_A9_D9_MISO-Pad10)*%
X118160000Y-93340000D02*
X118000000Y-93500000D01*
X118160000Y-90000000D02*
X118160000Y-93340000D01*
%TO.N,unconnected-(U1-PA6_A10_D10_MOSI-Pad11)*%
X115620000Y-90000000D02*
X115620000Y-93380000D01*
X115500000Y-93500000D02*
X115620000Y-93380000D01*
%TO.N,Net-(U1-3V3)*%
X113000000Y-93500000D02*
X113080000Y-93420000D01*
X113080000Y-90000000D02*
X113080000Y-93420000D01*
%TO.N,unconnected-(U1-GND-Pad13)*%
X110540000Y-93460000D02*
X110500000Y-93500000D01*
X110540000Y-90000000D02*
X110540000Y-93460000D01*
%TO.N,unconnected-(U1-5V-Pad14)*%
X108000000Y-93500000D02*
X108000000Y-93000000D01*
X108000000Y-90000000D02*
X108000000Y-93500000D01*
%TO.N,Net-(U1-PA10_A2_D2)*%
X113080000Y-76080000D02*
X113080000Y-74760000D01*
X117000000Y-80000000D02*
X113080000Y-76080000D01*
X119500000Y-80000000D02*
X117000000Y-80000000D01*
X135193402Y-78410000D02*
X121090000Y-78410000D01*
X137447717Y-80664315D02*
X135193402Y-78410000D01*
X140112032Y-78000000D02*
X137447717Y-80664315D01*
X155927968Y-78000000D02*
X140112032Y-78000000D01*
X175030000Y-78062032D02*
X159090000Y-78062032D01*
X156897968Y-78970000D02*
X155927968Y-78000000D01*
X159090000Y-78062032D02*
X158182032Y-78970000D01*
X175937968Y-78970000D02*
X175030000Y-78062032D01*
X177222032Y-78970000D02*
X175937968Y-78970000D01*
X178772032Y-77420000D02*
X177222032Y-78970000D01*
X158182032Y-78970000D02*
X156897968Y-78970000D01*
X121090000Y-78410000D02*
X119500000Y-80000000D01*
X195620000Y-77420000D02*
X178772032Y-77420000D01*
%TO.N,Net-(U1-PA11_A3_D3)*%
X172058000Y-72898000D02*
X117482000Y-72898000D01*
X117482000Y-72898000D02*
X115620000Y-74760000D01*
X176580000Y-77420000D02*
X172058000Y-72898000D01*
%TO.N,Net-(U1-PA8_A4_D4_SDA)*%
X119622000Y-73298000D02*
X118160000Y-74760000D01*
X136570032Y-73298000D02*
X119622000Y-73298000D01*
X140692032Y-77420000D02*
X136570032Y-73298000D01*
X157540000Y-77420000D02*
X140692032Y-77420000D01*
%TO.N,Net-(U1-PA9_A5_D5_SCL)*%
X121762000Y-73698000D02*
X120700000Y-74760000D01*
X138500000Y-77420000D02*
X134778000Y-73698000D01*
X134778000Y-73698000D02*
X121762000Y-73698000D01*
%TO.N,Net-(U1-PB08_A6_D6_TX)*%
X119460000Y-77420000D02*
X120580000Y-77420000D01*
X120580000Y-77420000D02*
X123240000Y-74760000D01*
%TO.N,unconnected-(U1-PA4_A1_D1-Pad2)*%
X110540000Y-74760000D02*
X110540000Y-71960000D01*
X110540000Y-71960000D02*
X111000000Y-71500000D01*
%TD*%
M02*
